<svg width="142" height="60" viewBox="0 0 142 60" fill="none" xmlns="http://www.w3.org/2000/svg">
<path fill-rule="evenodd" clip-rule="evenodd" d="M119.791 22.7769C120.591 22.2344 121.426 21.7521 122.312 21.3417C127.118 19.1168 134.885 19.7068 140.208 19.7064H141.176L140.934 20.6437C137.957 32.1945 135.077 43.77 132.279 55.3651L131.934 56.7977L122.749 45.9956L124.498 39.0534H123.917L122.569 44.0176H121.995C116.164 44.0176 110.334 43.8512 104.503 43.8512C101.915 43.8512 99.1876 43.2038 97.1381 41.581L96.5734 43.8293H78.8768L77.3188 40.4427L76.6198 43.8293H76.0087C70.0688 43.8293 64.1289 43.8512 58.189 43.8512C55.6267 43.8512 52.933 43.2182 50.8898 41.6323L50.3412 43.8316H25.6004C24.3855 48.739 23.1985 53.6532 22.0124 58.5677L21.6668 60L12.482 49.1985L14.2311 42.2563H13.6501L12.3021 47.2205H0.203283L3.73677 34.3451C5.43649 28.1525 9.76549 24.5873 15.774 23.4339L13.5792 20.8527L13.9633 19.4179H13.4468L12.0988 24.3817H0L3.53348 11.5067C4.8199 6.8195 7.43346 3.74678 11.8423 1.70589C16.6487 -0.519373 24.416 0.0709301 29.739 0.0709301H30.707L30.4652 1.00817C30.1885 2.0804 29.9124 3.15263 29.6357 4.22486C31.2877 3.70349 33.0666 3.48385 34.7715 3.48385H49.5633L49.1144 5.37115C50.3454 4.75039 51.66 4.29572 53 3.97251C57.9193 2.78581 63.4882 3.33443 68.5149 3.51303L69.4352 3.54574L69.2463 4.32009C70.9807 3.72914 72.8705 3.48385 74.6719 3.48385H89.4638L87.209 12.9636H85.4503C86.2712 14.3758 86.4433 16.0534 85.9726 17.7124C85.2938 20.1073 83.5665 21.8028 81.4657 22.9093H82.7495C83.5303 22.9093 84.3114 22.9642 85.0822 23.0886L89.4064 9.11337H99.0007C101.538 9.11337 104.334 9.84123 106.122 11.7289C106.908 11.1007 107.776 10.5877 108.693 10.1635C112.403 8.44612 118.283 8.95434 122.342 8.95434H123.309L123.068 9.89125C121.962 14.1831 120.908 18.488 119.791 22.7769Z" fill="white"/>
<path fill-rule="evenodd" clip-rule="evenodd" d="M47.9807 6.90432C49.4893 5.89013 51.2503 5.17093 53.1764 4.70632C57.9152 3.56323 63.5691 4.09261 68.489 4.26736L68.17 5.57398C70.1416 4.6175 72.483 4.23882 74.6726 4.23882H88.5154L86.6172 12.2187H83.9177C85.3119 13.5724 85.8255 15.4905 85.2519 17.5128C84.2034 21.2104 80.3393 23.1176 76.6568 23.6643H82.7503C83.5647 23.6643 84.3782 23.7265 85.1804 23.8705C85.3199 23.8958 85.4606 23.9234 85.6017 23.9535L89.9599 9.86802H99.0014C101.557 9.86802 104.459 10.6539 106.036 12.7974C106.861 12.0295 107.846 11.3869 109.009 10.8489C112.537 9.21584 118.651 9.70899 122.343 9.70899C121.145 14.3577 119.946 19.006 118.785 23.6643C118.673 24.069 118.729 24.4736 119.17 24.1568C120.162 23.3411 121.309 22.6376 122.628 22.0271C127.213 19.9041 135.349 20.4614 140.209 20.4614C137.23 32.0212 134.351 43.5903 131.551 55.1941L123.571 45.8092L125.46 38.3084H123.344L121.996 43.2726C115.951 43.2726 110.451 43.1065 104.504 43.1065C101.698 43.1065 98.6727 42.3049 96.7194 40.1771L95.9893 43.0844H79.3579L77.4529 38.9442H76.8642L76.0094 43.0844C70.0586 43.0844 64.1456 43.1065 58.1897 43.1065C55.41 43.1065 52.4239 42.3225 50.4654 40.2419L49.7561 43.0866H25.0144C23.7501 48.1851 22.5169 53.2904 21.284 58.3966L13.3042 49.0118L15.1941 41.5113H13.0772L11.7295 46.4755H1.1871L4.46054 34.5485C6.21734 28.1472 10.8657 24.7843 17.2099 23.9689L14.4062 20.6714L14.9407 18.6729H12.8739L11.5262 23.6367H0.984131L4.25725 11.7101C5.48531 7.23491 7.94913 4.3395 12.1582 2.39128C16.7434 0.268303 24.8804 0.825899 29.7397 0.825899C29.3427 2.3653 28.9464 3.90471 28.5479 5.4438C30.4592 4.58287 32.6848 4.23882 34.7722 4.23882H48.615L47.9807 6.90432Z" fill="#231F20"/>
<path fill-rule="evenodd" clip-rule="evenodd" d="M113.48 19.5336H109.201L108.536 22.1199H104.234L105.289 18.2761C106.019 15.6182 107.423 13.9724 109.919 12.8171C111.429 12.1178 113.655 11.9421 115.371 11.8908L115.375 11.8789H119.528L119.416 12.3111C118.597 15.4909 117.779 18.6714 116.985 21.8573L116.919 22.1199H112.832L113.48 19.5336ZM114.62 15.0738C112.747 14.9843 110.868 14.9394 110.012 16.7873H114.147L114.62 15.0738Z" fill="white"/>
<path fill-rule="evenodd" clip-rule="evenodd" d="M56.9631 17.4851H50.3828L49.1548 21.6477H43.0613L45.3574 13.9555C46.5697 9.89391 49.7274 7.77093 53.6871 6.81573C57.3837 5.92371 61.5191 6.19176 65.2914 6.32515L65.739 6.34087L62.0007 21.6477H55.8937L56.9631 17.4851ZM51.5519 13.8423H58.2001L59.1585 9.9731C55.4977 9.91379 53.2369 10.0193 51.5519 13.8423Z" fill="white"/>
<path fill-rule="evenodd" clip-rule="evenodd" d="M17.7711 16.4964H11.2021L9.85442 21.4606H3.83307L6.35043 12.2873C7.40952 8.42743 9.44207 6.04634 13.0663 4.36842C15.2906 3.33851 18.6022 3.09001 21.1122 3.01947L21.116 3.00439H26.9225L26.8052 3.46003C25.8609 7.12306 24.8974 10.7822 23.9656 14.4478C23.0979 17.8604 22.2764 21.2858 21.4498 24.7087L21.2818 25.4051L16.7983 20.1322L17.7711 16.4964ZM12.4744 12.1517H18.8526L19.9931 7.53476C18.5015 7.50526 16.8047 7.50077 15.4871 8.17636C13.9426 8.96835 13.083 10.5982 12.4744 12.1517Z" fill="white"/>
<path fill-rule="evenodd" clip-rule="evenodd" d="M26.0264 11.142C27.074 7.4222 31.3757 6.40576 34.772 6.40576H45.8585L44.996 10.0306H35.6024C32.3992 10.0306 32.5727 12.1257 34.7489 12.202C37.0248 12.2815 39.7054 12.0362 41.7299 13.197C43.1433 14.0069 43.7003 15.3421 43.2562 16.9084C42.2853 20.3329 37.6648 21.6446 34.511 21.6446H23.4299L24.3443 18.0198H33.719C34.9243 18.0198 35.6691 17.9537 36.1164 17.7738C36.7866 17.5045 37.0706 16.6298 36.2985 16.244C34.1021 15.1468 24.3944 16.9462 26.0264 11.142Z" fill="white"/>
<path fill-rule="evenodd" clip-rule="evenodd" d="M67.0355 25.0656L63.7075 25.0627L66.7108 22.6833L72.1047 22.7153L67.0355 25.0656Z" fill="url(#paint0_linear_102_223)"/>
<path fill-rule="evenodd" clip-rule="evenodd" d="M42.2174 29.4765L39.5259 40.8965H33.5113L36.448 29.4178H33.6007L30.5668 40.8965H24.5522L28.5929 25.8314L43.8549 25.8298C44.771 25.8298 45.7213 25.8933 46.6124 26.1152C50.4056 27.0611 50.7115 30.2268 49.8926 33.5121L48.0514 40.8965H42.4081L44.2146 33.2588C44.6299 31.2785 44.8094 29.4585 42.2174 29.4765Z" fill="white"/>
<path fill-rule="evenodd" clip-rule="evenodd" d="M57.0814 35.1554C57.2487 36.5233 58.1651 37.331 59.5529 37.331H67.4186L66.573 40.9167H58.1946C56.5023 40.9167 54.8029 40.6092 53.3305 39.74C50.9132 38.3128 50.3469 35.973 51.119 33.3887C52.105 30.0896 54.4332 27.9993 57.605 26.8094C59.1469 26.2313 60.7893 25.8298 62.4441 25.8298H70.1299L69.2793 29.438H62.1174C61.1689 29.438 60.3128 29.7256 59.5317 30.2566C58.9109 30.6779 58.5538 31.0672 58.178 31.5693H68.7768L67.9316 35.1554H57.0814Z" fill="white"/>
<path fill-rule="evenodd" clip-rule="evenodd" d="M84.4446 35.8454L86.7599 40.8949H80.7594L78.8548 36.7548H75.0965L74.242 40.8949H67.8378L71.3649 25.8298H82.7567C83.4419 25.8298 84.1265 25.8805 84.8014 26.0017C86.1776 26.2492 87.8764 26.844 88.7729 27.9685C89.3841 28.7349 89.5726 29.6689 89.4193 30.6289C89.2035 31.9842 88.4279 33.2354 87.4057 34.1351C86.4999 34.9329 85.5344 35.4135 84.4446 35.8454ZM76.8081 29.4162L75.9244 33.1687H79.7176C79.969 33.1687 80.2204 33.1373 80.4663 33.0857C81.662 32.8349 82.7233 32.2273 82.9741 30.9454C83.194 29.8212 81.9467 29.4162 81.055 29.4162H76.8081Z" fill="white"/>
<path fill-rule="evenodd" clip-rule="evenodd" d="M94.2866 40.8949H88.2714L92.349 25.8298H98.0706L94.2866 40.8949Z" fill="white"/>
<path fill-rule="evenodd" clip-rule="evenodd" d="M103.439 34.1823C103.304 35.022 103.39 36.0433 104.029 36.6717C104.27 36.9096 104.552 37.0809 104.874 37.1867C105.191 37.2909 105.527 37.331 105.86 37.331H113.907L113.082 40.9167H104.502C102.81 40.9167 101.11 40.6092 99.6379 39.74C97.2209 38.3128 96.654 35.973 97.4265 33.3887C98.4121 30.0909 100.742 27.9987 103.913 26.8094C105.455 26.231 107.096 25.8298 108.751 25.8298H116.547L115.719 29.438H108.425C108.083 29.438 107.74 29.4961 107.411 29.5878C106.332 29.8872 105.328 30.5035 104.634 31.3901C104.034 32.1571 103.594 33.221 103.439 34.1823Z" fill="white"/>
<path fill-rule="evenodd" clip-rule="evenodd" d="M131.58 22.6511L131.584 22.6361L137.39 22.6357L137.273 23.0914C134.978 31.9943 132.756 40.8874 130.598 49.8243L130.43 50.5207L125.948 45.2503L128.246 36.1277H121.67L120.322 41.0919H114.301L116.818 31.9187C117.877 28.0591 119.91 25.6777 123.534 24.0001C125.759 22.9698 129.07 22.7217 131.58 22.6511ZM122.942 31.783H129.321L130.461 27.1661C128.969 27.1366 127.273 27.1321 125.955 27.8077C124.41 28.5997 123.551 30.2292 122.942 31.783Z" fill="white"/>
<path fill-rule="evenodd" clip-rule="evenodd" d="M91.5729 12.0344H99.0086C99.6444 12.0344 100.283 12.0854 100.907 12.2085C103.056 12.6324 105.181 13.9204 104.806 16.4202C104.604 17.7589 103.815 19.0363 102.79 19.9056C101.112 21.3282 98.3118 22.1164 96.1302 22.1164H88.4534L91.5729 12.0344ZM94.0592 19.473H96.3021C96.5554 19.473 96.808 19.4349 97.0533 19.3736C98.3506 19.0491 99.3725 18.2735 99.7807 16.9694C100.087 15.9902 99.8506 15.0526 98.7691 14.7734C98.5369 14.7134 98.2942 14.6913 98.055 14.6913H95.5415L94.0592 19.473Z" fill="white"/>
<path fill-rule="evenodd" clip-rule="evenodd" d="M17.9853 39.3218H11.4092L10.0616 44.286H4.04022L6.55759 35.1128C7.61667 31.2529 9.6489 28.8718 13.2734 27.1938C15.4977 26.1639 18.8093 25.9154 21.3193 25.8449L21.3232 25.8298H27.1297L27.0123 26.2855C24.7172 35.1881 22.4945 44.0815 20.3366 53.0181L20.1685 53.7145L15.6869 48.4441L17.9853 39.3218ZM12.6815 34.9768H19.0598L20.2003 30.3602C18.7083 30.3307 17.0118 30.3262 15.6943 31.0018C14.1498 31.7938 13.2901 33.4233 12.6815 34.9768Z" fill="white"/>
<path fill-rule="evenodd" clip-rule="evenodd" d="M65.928 11.142C66.9756 7.4222 71.277 6.40576 74.6733 6.40576H85.7598L84.8976 10.0306H75.5037C72.3008 10.0306 72.4743 12.1257 74.6502 12.202C76.9264 12.2815 79.6067 12.0362 81.6315 13.197C83.0446 14.0069 83.6019 15.3421 83.1578 16.9084C82.1866 20.3329 77.5661 21.6446 74.4122 21.6446H63.3315L64.2456 18.0198H73.6203C74.8259 18.0198 75.5707 17.9537 76.018 17.7738C76.6879 17.5045 76.9719 16.6298 76.1998 16.244C74.0034 15.1468 64.296 16.9462 65.928 11.142Z" fill="white"/>
<defs>
<linearGradient id="paint0_linear_102_223" x1="68.6722" y1="22.7132" x2="68.6016" y2="24.3325" gradientUnits="userSpaceOnUse">
<stop stop-color="white"/>
<stop offset="0.19" stop-color="white"/>
<stop offset="0.51" stop-color="#FAFAFA"/>
<stop offset="0.74" stop-color="white"/>
<stop offset="1" stop-color="white"/>
</linearGradient>
</defs>
</svg>
