<svg width="142" height="60" viewBox="0 0 142 60" fill="none" xmlns="http://www.w3.org/2000/svg">
<path fill-rule="evenodd" clip-rule="evenodd" d="M119.791 22.7769C120.591 22.2345 121.426 21.7519 122.312 21.3417C127.118 19.1167 134.885 19.7068 140.208 19.7062H141.176L140.934 20.6438C137.957 32.1945 135.077 43.7699 132.279 55.3651L131.934 56.7978L122.749 45.9955L124.498 39.0534H123.917L122.569 44.0176H121.995C116.164 44.0176 110.334 43.8512 104.503 43.8512C101.915 43.8512 99.1877 43.2038 97.1384 41.5811L96.5736 43.8294H78.8769L77.3188 40.4425L76.62 43.8294H76.0088C70.0689 43.8294 64.1291 43.8512 58.1892 43.8512C55.6266 43.8512 52.9332 43.2182 50.89 41.6323L50.3412 43.8317H25.6004C24.3856 48.7389 23.1984 53.6531 22.0125 58.5677L21.6669 60L12.4819 49.1984L14.2311 42.2563H13.6503L12.3021 47.2205H0.2032L3.73665 34.3449C5.43649 28.1526 9.76545 24.5872 15.7741 23.4339L13.5792 20.8527L13.9632 19.4179H13.4467L12.0989 24.3817H0L3.53345 11.5065C4.81985 6.81945 7.43361 3.7468 11.8423 1.70584C16.6487 -0.519445 24.416 0.0709561 29.7389 0.0709561H30.7069L30.4653 1.00824C30.1885 2.08024 29.9124 3.15256 29.6359 4.22488C31.2877 3.70328 33.0666 3.48376 34.7716 3.48376H49.5633L49.1143 5.37112C50.3454 4.75032 51.6599 4.2956 53.0001 3.9724C57.9194 2.78584 63.4884 3.33432 68.515 3.51288L69.4353 3.54552L69.2465 4.31992C70.9809 3.7292 72.8705 3.48376 74.6721 3.48376H89.4638L87.2091 12.9635H85.4504C86.2712 14.3756 86.4433 16.0534 85.9726 17.7123C85.2939 20.1071 83.5665 21.8028 81.4657 22.9094H82.7496C83.5304 22.9094 84.3115 22.9641 85.0824 23.0886L89.4065 9.11321H99.0008C101.538 9.11321 104.334 9.84121 106.122 11.7289C106.908 11.1007 107.776 10.5878 108.693 10.1635C112.403 8.44601 118.283 8.95417 122.342 8.95417H123.309L123.068 9.89113C121.962 14.183 120.908 18.4879 119.791 22.7769Z" fill="#FFE100"/>
<path fill-rule="evenodd" clip-rule="evenodd" d="M47.9809 6.90425C49.4894 5.89016 51.2503 5.1708 53.1764 4.70616C57.9153 3.56312 63.5691 4.0924 68.4891 4.26712L68.17 5.574C70.1419 4.61752 72.483 4.23864 74.6728 4.23864H88.5156L86.6174 12.2185H83.9179C85.3121 13.5724 85.8257 15.4905 85.252 17.5126C84.2036 21.2102 80.3393 23.1174 76.6571 23.6643H82.7505C83.5649 23.6643 84.3784 23.7264 85.1806 23.8704C85.3201 23.8956 85.4606 23.9235 85.6017 23.9536L89.9601 9.86809H99.0014C101.557 9.86809 104.459 10.6537 106.036 12.7974C106.861 12.0294 107.846 11.3868 109.009 10.8489C112.537 9.21561 118.651 9.70905 122.343 9.70905C121.145 14.3577 119.946 19.006 118.785 23.6643C118.673 24.0691 118.729 24.4736 119.17 24.1568C120.162 23.3411 121.309 22.6374 122.628 22.0272C127.213 19.9039 135.349 20.4614 140.209 20.4614C137.23 32.0211 134.351 43.5904 131.551 55.1942L123.571 45.8093L125.46 38.3085H123.344L121.996 43.2726C115.951 43.2726 110.451 43.1065 104.504 43.1065C101.698 43.1065 98.6728 42.3049 96.7195 40.1769L95.9896 43.0845H79.3579L77.4529 38.9443H76.8644L76.0094 43.0845C70.0587 43.0845 64.1457 43.1065 58.1898 43.1065C55.41 43.1065 52.4241 42.3225 50.4654 40.2419L49.7562 43.0867H25.0144C23.7501 48.185 22.5168 53.2902 21.2842 58.3965L13.3043 49.0118L15.1943 41.5113H13.0771L11.7296 46.4755H1.1872L4.46049 34.5485C6.21729 28.1472 10.8656 24.7843 17.2099 23.9689L14.4061 20.6713L14.9408 18.6729H12.8739L11.5261 23.6368H0.984001L4.25729 11.71C5.48545 7.23481 7.94913 4.33944 12.1581 2.39128C16.7434 0.268075 24.8804 0.825836 29.7399 0.825836C29.3428 2.36536 28.9466 3.90456 28.5479 5.44376C30.4592 4.58264 32.6849 4.23864 34.7722 4.23864H48.6151L47.9809 6.90425Z" fill="#231F20"/>
<path fill-rule="evenodd" clip-rule="evenodd" d="M113.48 19.5334H109.201L108.536 22.1199H104.234L105.289 18.2761C106.019 15.6182 107.423 13.9724 109.919 12.8169C111.429 12.1177 113.655 11.942 115.371 11.8908L115.375 11.879H119.528L119.416 12.311C118.597 15.4908 117.779 18.6713 116.985 21.8572L116.919 22.1199H112.832L113.48 19.5334ZM114.62 15.0739C112.747 14.9843 110.868 14.9395 110.012 16.7871H114.147L114.62 15.0739Z" fill="#FFE800"/>
<path fill-rule="evenodd" clip-rule="evenodd" d="M56.9633 17.4851H50.3828L49.155 21.6476H43.0615L45.3575 13.9555C46.5697 9.89369 49.7274 7.77081 53.6871 6.81561C57.3838 5.92376 61.5191 6.19161 65.2916 6.32505L65.739 6.34073L62.0007 21.6476H55.8938L56.9633 17.4851ZM51.5521 13.8422H58.2001L59.1585 9.97305C55.4977 9.91385 53.2369 10.0191 51.5521 13.8422Z" fill="#FFE800"/>
<path fill-rule="evenodd" clip-rule="evenodd" d="M17.7712 16.4963H11.2023L9.85441 21.4604H3.83297L6.35041 12.2873C7.40961 8.42745 9.44193 6.04632 13.0663 4.36824C15.2906 3.33848 18.6023 3.08984 21.1124 3.01944L21.1159 3.0044H26.9226L26.8052 3.46008C25.8608 7.12313 24.8973 10.782 23.9655 14.4476C23.098 17.8604 22.2765 21.2857 21.45 24.7088L21.2819 25.4051L16.7984 20.1321L17.7712 16.4963ZM12.4743 12.1516H18.8525L19.993 7.53465C18.5015 7.50521 16.8048 7.50073 15.4871 8.17625C13.9427 8.96825 13.0829 10.598 12.4743 12.1516Z" fill="#FFE800"/>
<path fill-rule="evenodd" clip-rule="evenodd" d="M26.0266 11.142C27.074 7.42201 31.3757 6.40569 34.7719 6.40569H45.8586L44.9962 10.0307H35.6026C32.3994 10.0307 32.5728 12.1257 34.7489 12.2019C37.025 12.2815 39.7053 12.0361 41.73 13.1971C43.1434 14.007 43.7002 15.342 43.2564 16.9084C42.2855 20.3327 37.665 21.6444 34.5111 21.6444H23.4298L24.3444 18.0198H33.7191C34.9242 18.0198 35.6692 17.9535 36.1165 17.7737C36.7866 17.5046 37.0708 16.6297 36.2986 16.2441C34.1021 15.1468 24.3946 16.9462 26.0266 11.142Z" fill="#FFE800"/>
<path fill-rule="evenodd" clip-rule="evenodd" d="M67.0356 25.0656L63.7076 25.0627L66.7108 22.6832L72.1047 22.7152L67.0356 25.0656Z" fill="#FFE800"/>
<path fill-rule="evenodd" clip-rule="evenodd" d="M42.2173 29.4764L39.5258 40.8966H33.5114L36.4481 29.4179H33.6007L30.5668 40.8966H24.5524L28.593 25.8313L43.8551 25.8297C44.7709 25.8297 45.7213 25.8934 46.6125 26.1152C50.4055 27.0611 50.7114 30.2268 49.8926 33.512L48.0516 40.8966H42.4081L44.2148 33.2588C44.6298 31.2784 44.8093 29.4585 42.2173 29.4764Z" fill="#FFE800"/>
<path fill-rule="evenodd" clip-rule="evenodd" d="M57.0814 35.1555C57.2487 36.5232 58.1652 37.3308 59.5531 37.3308H67.4187L66.5732 40.9168H58.1946C56.5025 40.9168 54.803 40.6093 53.3306 39.7398C50.9134 38.3126 50.347 35.9731 51.1191 33.3888C52.105 30.0896 54.4334 27.9993 57.6052 26.8092C59.147 26.2313 60.7895 25.8297 62.4443 25.8297H70.13L69.2795 29.438H62.1175C61.1691 29.438 60.3127 29.7257 59.5319 30.2566C58.9111 30.6777 58.554 31.0672 58.178 31.5692H68.7767L67.9316 35.1555H57.0814Z" fill="#FFE800"/>
<path fill-rule="evenodd" clip-rule="evenodd" d="M84.4446 35.8454L86.7601 40.895H80.7595L78.8548 36.7549H75.0968L74.242 40.895H67.8379L71.3649 25.8297H82.7569C83.442 25.8297 84.1265 25.8806 84.8014 26.0015C86.1777 26.2492 87.8766 26.8441 88.7729 27.9686C89.3841 28.735 89.5726 29.6688 89.4193 30.6288C89.2037 31.9843 88.428 33.2355 87.4059 34.135C86.5 34.9328 85.5345 35.4134 84.4446 35.8454ZM76.8081 29.4163L75.9246 33.1686H79.7176C79.9691 33.1686 80.2206 33.1372 80.4664 33.0857C81.6622 32.8348 82.7233 32.2272 82.9742 30.9452C83.194 29.8211 81.9467 29.4163 81.0552 29.4163H76.8081Z" fill="#FFE800"/>
<path fill-rule="evenodd" clip-rule="evenodd" d="M94.2869 40.895H88.2715L92.3493 25.8297H98.0709L94.2869 40.895Z" fill="#FFE800"/>
<path fill-rule="evenodd" clip-rule="evenodd" d="M103.439 34.1824C103.304 35.022 103.39 36.0432 104.029 36.6716C104.27 36.9094 104.552 37.0809 104.874 37.1865C105.191 37.2909 105.527 37.3308 105.86 37.3308H113.907L113.082 40.9168H104.502C102.81 40.9168 101.11 40.6093 99.6379 39.7401C97.221 38.3129 96.6542 35.9731 97.4267 33.3888C98.4123 30.0908 100.742 27.9987 103.913 26.8092C105.455 26.231 107.096 25.8297 108.751 25.8297H116.547L115.719 29.438H108.425C108.083 29.438 107.74 29.496 107.411 29.5878C106.332 29.8873 105.328 30.5033 104.634 31.39C104.034 32.1571 103.594 33.2211 103.439 34.1824Z" fill="#FFE800"/>
<path fill-rule="evenodd" clip-rule="evenodd" d="M131.58 22.6511L131.584 22.6361L137.39 22.6358L137.273 23.0915C134.978 31.9942 132.756 40.8873 130.598 49.8243L130.43 50.5206L125.948 45.2502L128.246 36.1277H121.67L120.322 41.0918H114.301L116.818 31.9187C117.877 28.0592 119.91 25.6777 123.534 24C125.759 22.9699 129.07 22.7215 131.58 22.6511ZM122.942 31.783H129.321L130.461 27.166C128.969 27.1366 127.273 27.1321 125.955 27.8076C124.41 28.5996 123.551 30.2291 122.942 31.783Z" fill="#FFE800"/>
<path fill-rule="evenodd" clip-rule="evenodd" d="M91.5729 12.0345L99.0088 12.0342C99.6446 12.0342 100.283 12.0854 100.907 12.2086C103.056 12.6323 105.181 13.9203 104.806 16.4201C104.604 17.759 103.815 19.0361 102.79 19.9055C101.112 21.3283 98.3118 22.1164 96.1304 22.1164H88.4536L91.5729 12.0345ZM94.0593 19.4732H96.3022C96.5557 19.4732 96.8082 19.4351 97.0536 19.3737C98.3509 19.0492 99.3726 18.2739 99.781 16.9695C100.087 15.9903 99.8507 15.0527 98.7691 14.7737C98.5371 14.7135 98.2942 14.6915 98.0552 14.6915H95.5416L94.0593 19.4732Z" fill="#FFE800"/>
<path fill-rule="evenodd" clip-rule="evenodd" d="M17.9853 39.3219H11.4093L10.0618 44.2861H4.04033L6.55745 35.1126C7.61665 31.2528 9.64898 28.8716 13.2733 27.1939C15.4976 26.1638 18.8093 25.9155 21.3194 25.8447L21.3232 25.8297H27.1296L27.0122 26.2854C24.7172 35.1881 22.4944 44.0816 20.3367 53.0182L20.1687 53.7146L15.6871 48.4441L17.9853 39.3219ZM12.6816 34.9766L19.0599 34.9769L20.2004 30.3603C18.7082 30.3305 17.0119 30.326 15.6944 31.0019C14.1498 31.7939 13.2903 33.4233 12.6816 34.9766Z" fill="#FFE800"/>
<path fill-rule="evenodd" clip-rule="evenodd" d="M65.9281 11.142C66.9758 7.42201 71.2772 6.40569 74.6734 6.40569H85.7598L84.8977 10.0307H75.5038C72.3009 10.0307 72.4743 12.1257 74.6504 12.2019C76.9265 12.2815 79.6068 12.0361 81.6315 13.1971C83.0446 14.007 83.6021 15.342 83.1579 16.9084C82.1867 20.3327 77.5662 21.6444 74.4123 21.6444H63.3316L64.2459 18.0198H73.6203C74.826 18.0198 75.5707 17.9535 76.018 17.7737C76.6881 17.5046 76.972 16.6297 76.1998 16.2441C74.0036 15.1468 64.2961 16.9462 65.9281 11.142Z" fill="#FFE800"/>
</svg>
