<svg width="100" height="100" viewBox="0 0 100 100" fill="none" xmlns="http://www.w3.org/2000/svg">
<circle cx="50" cy="50" r="50" fill="white"/>
<g clip-path="url(#clip0_125_14)">
<path d="M46.25 45C45.9185 45 45.6005 45.1317 45.3661 45.3661C45.1317 45.6005 45 45.9185 45 46.25V53.75C45 54.0815 45.1317 54.3995 45.3661 54.6339C45.6005 54.8683 45.9185 55 46.25 55H53.75C54.0815 55 54.3995 54.8683 54.6339 54.6339C54.8683 54.3995 55 54.0815 55 53.75V46.25C55 45.9185 54.8683 45.6005 54.6339 45.3661C54.3995 45.1317 54.0815 45 53.75 45H46.25Z" fill="#101929"/>
<path d="M43.75 31.25C43.75 30.9185 43.6183 30.6005 43.3839 30.3661C43.1495 30.1317 42.8315 30 42.5 30C42.1685 30 41.8505 30.1317 41.6161 30.3661C41.3817 30.6005 41.25 30.9185 41.25 31.25V35C39.5924 35 38.0027 35.6585 36.8306 36.8306C35.6585 38.0027 35 39.5924 35 41.25H31.25C30.9185 41.25 30.6005 41.3817 30.3661 41.6161C30.1317 41.8505 30 42.1685 30 42.5C30 42.8315 30.1317 43.1495 30.3661 43.3839C30.6005 43.6183 30.9185 43.75 31.25 43.75H35V46.25H31.25C30.9185 46.25 30.6005 46.3817 30.3661 46.6161C30.1317 46.8505 30 47.1685 30 47.5C30 47.8315 30.1317 48.1495 30.3661 48.3839C30.6005 48.6183 30.9185 48.75 31.25 48.75H35V51.25H31.25C30.9185 51.25 30.6005 51.3817 30.3661 51.6161C30.1317 51.8505 30 52.1685 30 52.5C30 52.8315 30.1317 53.1495 30.3661 53.3839C30.6005 53.6183 30.9185 53.75 31.25 53.75H35V56.25H31.25C30.9185 56.25 30.6005 56.3817 30.3661 56.6161C30.1317 56.8505 30 57.1685 30 57.5C30 57.8315 30.1317 58.1495 30.3661 58.3839C30.6005 58.6183 30.9185 58.75 31.25 58.75H35C35 60.4076 35.6585 61.9973 36.8306 63.1694C38.0027 64.3415 39.5924 65 41.25 65V68.75C41.25 69.0815 41.3817 69.3995 41.6161 69.6339C41.8505 69.8683 42.1685 70 42.5 70C42.8315 70 43.1495 69.8683 43.3839 69.6339C43.6183 69.3995 43.75 69.0815 43.75 68.75V65H46.25V68.75C46.25 69.0815 46.3817 69.3995 46.6161 69.6339C46.8505 69.8683 47.1685 70 47.5 70C47.8315 70 48.1495 69.8683 48.3839 69.6339C48.6183 69.3995 48.75 69.0815 48.75 68.75V65H51.25V68.75C51.25 69.0815 51.3817 69.3995 51.6161 69.6339C51.8505 69.8683 52.1685 70 52.5 70C52.8315 70 53.1495 69.8683 53.3839 69.6339C53.6183 69.3995 53.75 69.0815 53.75 68.75V65H56.25V68.75C56.25 69.0815 56.3817 69.3995 56.6161 69.6339C56.8505 69.8683 57.1685 70 57.5 70C57.8315 70 58.1495 69.8683 58.3839 69.6339C58.6183 69.3995 58.75 69.0815 58.75 68.75V65C60.4076 65 61.9973 64.3415 63.1694 63.1694C64.3415 61.9973 65 60.4076 65 58.75H68.75C69.0815 58.75 69.3995 58.6183 69.6339 58.3839C69.8683 58.1495 70 57.8315 70 57.5C70 57.1685 69.8683 56.8505 69.6339 56.6161C69.3995 56.3817 69.0815 56.25 68.75 56.25H65V53.75H68.75C69.0815 53.75 69.3995 53.6183 69.6339 53.3839C69.8683 53.1495 70 52.8315 70 52.5C70 52.1685 69.8683 51.8505 69.6339 51.6161C69.3995 51.3817 69.0815 51.25 68.75 51.25H65V48.75H68.75C69.0815 48.75 69.3995 48.6183 69.6339 48.3839C69.8683 48.1495 70 47.8315 70 47.5C70 47.1685 69.8683 46.8505 69.6339 46.6161C69.3995 46.3817 69.0815 46.25 68.75 46.25H65V43.75H68.75C69.0815 43.75 69.3995 43.6183 69.6339 43.3839C69.8683 43.1495 70 42.8315 70 42.5C70 42.1685 69.8683 41.8505 69.6339 41.6161C69.3995 41.3817 69.0815 41.25 68.75 41.25H65C65 39.5924 64.3415 38.0027 63.1694 36.8306C61.9973 35.6585 60.4076 35 58.75 35V31.25C58.75 30.9185 58.6183 30.6005 58.3839 30.3661C58.1495 30.1317 57.8315 30 57.5 30C57.1685 30 56.8505 30.1317 56.6161 30.3661C56.3817 30.6005 56.25 30.9185 56.25 31.25V35H53.75V31.25C53.75 30.9185 53.6183 30.6005 53.3839 30.3661C53.1495 30.1317 52.8315 30 52.5 30C52.1685 30 51.8505 30.1317 51.6161 30.3661C51.3817 30.6005 51.25 30.9185 51.25 31.25V35H48.75V31.25C48.75 30.9185 48.6183 30.6005 48.3839 30.3661C48.1495 30.1317 47.8315 30 47.5 30C47.1685 30 46.8505 30.1317 46.6161 30.3661C46.3817 30.6005 46.25 30.9185 46.25 31.25V35H43.75V31.25ZM46.25 42.5H53.75C54.7446 42.5 55.6984 42.8951 56.4017 43.5983C57.1049 44.3016 57.5 45.2554 57.5 46.25V53.75C57.5 54.7446 57.1049 55.6984 56.4017 56.4017C55.6984 57.1049 54.7446 57.5 53.75 57.5H46.25C45.2554 57.5 44.3016 57.1049 43.5983 56.4017C42.8951 55.6984 42.5 54.7446 42.5 53.75V46.25C42.5 45.2554 42.8951 44.3016 43.5983 43.5983C44.3016 42.8951 45.2554 42.5 46.25 42.5Z" fill="#101929"/>
</g>
<defs>
<clipPath id="clip0_125_14">
<rect width="40" height="40" fill="white" transform="translate(30 30)"/>
</clipPath>
</defs>
</svg>
