<?xml version="1.0" encoding="UTF-8" standalone="no"?><!DOCTYPE svg PUBLIC "-//W3C//DTD SVG 1.1//EN" "http://www.w3.org/Graphics/SVG/1.1/DTD/svg11.dtd"><svg width="100%" height="100%" viewBox="0 0 152 27" version="1.1" xmlns="http://www.w3.org/2000/svg" xmlns:xlink="http://www.w3.org/1999/xlink" xml:space="preserve" xmlns:serif="http://www.serif.com/" style="fill-rule:evenodd;clip-rule:evenodd;stroke-linejoin:round;stroke-miterlimit:2;"><g><path d="M35.316,17.042l-4.24,-0l-0,2.16l4.16,-0l-0,2.464l-4.16,-0l-0,4.112l-2.56,-0l-0,-11.2l6.8,-0l-0,2.464Zm7.24,0.736l2.4,-0l0,8l-2.4,-0l0,-0.752c-0.565,0.651 -1.36,0.976 -2.384,0.976c-1.056,-0 -1.957,-0.405 -2.704,-1.216c-0.747,-0.821 -1.12,-1.824 -1.12,-3.008c0,-1.184 0.373,-2.181 1.12,-2.992c0.747,-0.821 1.648,-1.232 2.704,-1.232c1.024,-0 1.819,0.325 2.384,0.976l0,-0.752Zm-3.28,5.424c0.352,0.352 0.811,0.528 1.376,0.528c0.565,-0 1.024,-0.176 1.376,-0.528c0.352,-0.352 0.528,-0.827 0.528,-1.424c0,-0.597 -0.176,-1.072 -0.528,-1.424c-0.352,-0.352 -0.811,-0.528 -1.376,-0.528c-0.565,-0 -1.024,0.176 -1.376,0.528c-0.352,0.352 -0.528,0.827 -0.528,1.424c0,0.597 0.176,1.072 0.528,1.424Zm9.635,-3.088c-0,0.16 0.133,0.293 0.4,0.4c0.277,0.096 0.608,0.197 0.992,0.304c0.384,0.096 0.768,0.224 1.152,0.384c0.384,0.16 0.709,0.427 0.976,0.8c0.277,0.363 0.416,0.821 0.416,1.376c-0,0.864 -0.32,1.52 -0.96,1.968c-0.64,0.437 -1.43,0.656 -2.368,0.656c-1.686,-0 -2.832,-0.635 -3.44,-1.904l2.08,-1.184c0.213,0.629 0.666,0.944 1.36,0.944c0.576,-0 0.864,-0.165 0.864,-0.496c-0,-0.16 -0.139,-0.293 -0.416,-0.4c-0.267,-0.107 -0.592,-0.208 -0.976,-0.304c-0.384,-0.107 -0.768,-0.24 -1.152,-0.4c-0.384,-0.171 -0.715,-0.432 -0.992,-0.784c-0.267,-0.352 -0.4,-0.784 -0.4,-1.296c-0,-0.832 0.298,-1.477 0.896,-1.936c0.608,-0.459 1.354,-0.688 2.24,-0.688c0.661,-0 1.264,0.149 1.808,0.448c0.544,0.288 0.981,0.709 1.312,1.264l-2.048,1.104c-0.256,-0.469 -0.614,-0.704 -1.072,-0.704c-0.448,-0 -0.672,0.149 -0.672,0.448Zm7.2,2.624c0.277,0.747 0.917,1.12 1.92,1.12c0.65,-0 1.162,-0.203 1.535,-0.608l1.921,1.104c-0.79,1.099 -1.952,1.648 -3.488,1.648c-1.344,-0 -2.422,-0.4 -3.232,-1.2c-0.8,-0.8 -1.2,-1.808 -1.2,-3.024c-0,-1.205 0.394,-2.208 1.184,-3.008c0.8,-0.811 1.824,-1.216 3.072,-1.216c1.162,-0 2.128,0.405 2.896,1.216c0.778,0.8 1.168,1.803 1.168,3.008c-0,0.341 -0.032,0.661 -0.096,0.96l-5.68,-0Zm-0.048,-1.792l3.44,-0c-0.235,-0.843 -0.8,-1.264 -1.696,-1.264c-0.928,-0 -1.51,0.421 -1.744,1.264Zm16.609,5.056c-1.675,-0 -3.067,-0.555 -4.176,-1.664c-1.099,-1.12 -1.648,-2.507 -1.648,-4.16c0,-1.653 0.549,-3.035 1.648,-4.144c1.109,-1.12 2.501,-1.68 4.176,-1.68c1.003,-0 1.931,0.235 2.784,0.704c0.854,0.459 1.526,1.088 2.016,1.888l-2.208,1.28c-0.245,-0.437 -0.597,-0.774 -1.056,-1.008c-0.458,-0.246 -0.971,-0.368 -1.536,-0.368c-0.992,-0 -1.786,0.304 -2.384,0.912c-0.587,0.608 -0.88,1.413 -0.88,2.416c-0,1.003 0.293,1.808 0.88,2.416c0.598,0.608 1.392,0.912 2.384,0.912c0.565,-0 1.078,-0.123 1.536,-0.368c0.47,-0.246 0.822,-0.581 1.056,-1.008l2.208,1.28c-0.48,0.8 -1.147,1.435 -2,1.904c-0.853,0.459 -1.787,0.688 -2.8,0.688Zm12.846,-1.216c-0.821,0.811 -1.824,1.216 -3.008,1.216c-1.184,-0 -2.187,-0.405 -3.008,-1.216c-0.821,-0.821 -1.232,-1.824 -1.232,-3.008c-0,-1.184 0.411,-2.182 1.232,-2.992c0.821,-0.821 1.824,-1.232 3.008,-1.232c1.184,-0 2.187,0.411 3.008,1.232c0.821,0.811 1.232,1.808 1.232,2.992c-0,1.184 -0.411,2.187 -1.232,3.008Zm-4.32,-1.648c0.352,0.352 0.789,0.528 1.312,0.528c0.523,-0 0.96,-0.176 1.312,-0.528c0.352,-0.352 0.528,-0.805 0.528,-1.36c0,-0.555 -0.176,-1.008 -0.528,-1.36c-0.352,-0.352 -0.789,-0.528 -1.312,-0.528c-0.523,-0 -0.96,0.176 -1.312,0.528c-0.352,0.352 -0.528,0.805 -0.528,1.36c-0,0.555 0.176,1.008 0.528,1.36l-0,-0Zm11.598,-5.584c0.853,-0 1.562,0.293 2.128,0.88c0.576,0.586 0.864,1.397 0.864,2.432l-0,4.912l-2.401,-0l0,-4.56c0,-0.47 -0.132,-0.827 -0.4,-1.072c-0.255,-0.256 -0.586,-0.384 -0.991,-0.384c-0.459,-0 -0.822,0.138 -1.089,0.416c-0.266,0.277 -0.4,0.688 -0.4,1.232l0,4.368l-2.399,-0l-0,-8l2.399,-0l0,0.752c0.481,-0.651 1.243,-0.976 2.289,-0.976Zm6.912,2.56c-0,0.16 0.133,0.293 0.399,0.4c0.278,0.096 0.609,0.197 0.993,0.304c0.384,0.096 0.767,0.224 1.152,0.384c0.384,0.16 0.709,0.426 0.976,0.8c0.277,0.362 0.416,0.821 0.416,1.376c-0,0.864 -0.32,1.52 -0.96,1.968c-0.641,0.437 -1.429,0.656 -2.368,0.656c-1.686,-0 -2.832,-0.635 -3.441,-1.904l2.08,-1.184c0.214,0.629 0.668,0.944 1.361,0.944c0.576,-0 0.864,-0.166 0.864,-0.496c-0,-0.16 -0.139,-0.294 -0.417,-0.4c-0.266,-0.107 -0.591,-0.208 -0.975,-0.304c-0.384,-0.107 -0.768,-0.24 -1.152,-0.4c-0.385,-0.171 -0.715,-0.432 -0.992,-0.784c-0.267,-0.352 -0.4,-0.784 -0.4,-1.296c-0,-0.832 0.299,-1.478 0.896,-1.936c0.608,-0.459 1.355,-0.688 2.24,-0.688c0.661,-0 1.264,0.149 1.808,0.448c0.544,0.288 0.981,0.709 1.312,1.264l-2.048,1.104c-0.256,-0.47 -0.614,-0.704 -1.072,-0.704c-0.448,-0 -0.672,0.149 -0.672,0.448Zm10.302,-2.336l2.4,-0l-0,8l-2.4,-0l0,-0.752c-0.48,0.651 -1.242,0.976 -2.288,0.976c-0.853,-0 -1.568,-0.294 -2.144,-0.88c-0.565,-0.587 -0.848,-1.398 -0.848,-2.432l-0,-4.912l2.4,-0l-0,4.56c-0,0.469 0.128,0.832 0.384,1.088c0.267,0.245 0.603,0.368 1.008,0.368c0.458,-0 0.822,-0.139 1.088,-0.416c0.267,-0.278 0.4,-0.688 0.4,-1.232l0,-4.368Zm4.16,8l0,-11.68l2.4,-0l-0,11.68l-2.4,-0Zm8.844,-5.696l-1.648,-0l0,2.832c0,0.32 0.128,0.522 0.384,0.608c0.256,0.085 0.678,0.112 1.264,0.08l0,2.176c-1.525,0.16 -2.581,0.016 -3.168,-0.432c-0.586,-0.459 -0.88,-1.27 -0.88,-2.432l0,-2.832l-1.28,-0l0,-2.304l1.28,-0l0,-1.52l2.4,-0.72l0,2.24l1.648,-0l0,2.304Zm8.051,4.704c-0.821,0.81 -1.824,1.216 -3.008,1.216c-1.184,-0 -2.187,-0.406 -3.008,-1.216c-0.821,-0.822 -1.232,-1.824 -1.232,-3.008c-0,-1.184 0.411,-2.182 1.232,-2.992c0.821,-0.822 1.824,-1.232 3.008,-1.232c1.184,-0 2.187,0.41 3.008,1.232c0.821,0.81 1.232,1.808 1.232,2.992c-0,1.184 -0.411,2.186 -1.232,3.008Zm-4.32,-1.648c0.352,0.352 0.79,0.528 1.312,0.528c0.523,-0 0.96,-0.176 1.312,-0.528c0.352,-0.352 0.528,-0.806 0.528,-1.36c0,-0.555 -0.176,-1.008 -0.528,-1.36c-0.352,-0.352 -0.789,-0.528 -1.312,-0.528c-0.522,-0 -0.96,0.176 -1.312,0.528c-0.352,0.352 -0.528,0.805 -0.528,1.36c0,0.554 0.176,1.008 0.528,1.36Zm9.309,-3.936c0.15,-0.512 0.448,-0.902 0.896,-1.168c0.459,-0.278 0.96,-0.416 1.504,-0.416l0,2.72c-0.586,-0.096 -1.135,0.005 -1.648,0.304c-0.501,0.288 -0.752,0.794 -0.752,1.52l0,3.616l-2.4,-0l0,-8l2.4,-0l0,1.424Zm5.73,-2.544c-0.277,0.277 -0.613,0.416 -1.008,0.416c-0.394,-0 -0.736,-0.139 -1.024,-0.416c-0.277,-0.288 -0.416,-0.63 -0.416,-1.024c0,-0.395 0.139,-0.731 0.416,-1.008c0.288,-0.288 0.63,-0.432 1.024,-0.432c0.395,-0 0.731,0.144 1.008,0.432c0.288,0.277 0.432,0.613 0.432,1.008c0,0.394 -0.144,0.736 -0.432,1.024Zm-2.208,9.12l0,-8l2.4,-0l0,8l-2.4,-0Zm9.965,-8l2.399,-0l0,8l-2.399,-0l-0,-0.752c-0.566,0.65 -1.36,0.976 -2.384,0.976c-1.056,-0 -1.958,-0.406 -2.704,-1.216c-0.747,-0.822 -1.121,-1.824 -1.121,-3.008c0,-1.184 0.374,-2.182 1.121,-2.992c0.746,-0.822 1.648,-1.232 2.704,-1.232c1.024,-0 1.818,0.325 2.384,0.976l-0,-0.752Zm-3.28,5.424c0.352,0.352 0.81,0.528 1.376,0.528c0.565,-0 1.024,-0.176 1.376,-0.528c0.352,-0.352 0.528,-0.827 0.528,-1.424c-0,-0.598 -0.176,-1.072 -0.528,-1.424c-0.352,-0.352 -0.811,-0.528 -1.376,-0.528c-0.566,-0 -1.024,0.176 -1.376,0.528c-0.352,0.352 -0.528,0.826 -0.528,1.424c-0,0.597 0.176,1.072 0.528,1.424Z" style="fill:#fff;fill-rule:nonzero;"/><path d="M9.673,25.405l-0,-9.351c-0.185,0.607 -0.594,0.868 -1.123,0.948c-0.046,-0.005 -0.092,-0.008 -0.139,-0.008l-7.15,0c-0.696,0 -1.261,0.565 -1.261,1.261l-0,7.15c-0,0.696 0.565,1.262 1.261,1.262l7.15,-0c0.696,-0 1.262,-0.566 1.262,-1.262Z" style="fill:url(#_Linear1);"/><path d="M8.544,14.502l0,0.007c0.59,0.125 1.003,0.425 1.129,1.007l-0,5.053c-0,0.696 0.565,1.261 1.261,1.261l7.15,0c0.696,0 1.261,-0.565 1.261,-1.261l0,-7.15c0,-0.696 -0.565,-1.261 -1.261,-1.261l-7.15,-0c-0.068,-0 -0.134,0.005 -0.199,0.015l0,-0.015c-0.657,-0.166 -1.004,-0.574 -1.06,-1.209l-0.002,-0l-0,-4.851c-0,-0.046 -0.003,-0.091 -0.008,-0.136l0.008,0.001l-0,-2.067c-0.176,0.586 -0.556,0.896 -1.129,0.947c-0.043,-0.004 -0.088,-0.007 -0.133,-0.007l-7.15,0c-0.696,0 -1.261,0.565 -1.261,1.262l-0,7.149c-0,0.697 0.565,1.262 1.261,1.262l7.15,-0c0.045,-0 0.089,-0.003 0.133,-0.007Z" style="fill:url(#_Linear2);"/><path d="M9.673,15.584l2.619,6.246l-1.545,0c-0.539,0.082 -0.903,0.401 -1.074,0.941l-0,-7.187Z" style="fill:#e85733;"/><path d="M9.673,1.261l-0,9.688l0.002,-0l-0.002,-0.034c0.046,-0.751 0.48,-1.142 1.235,-1.235l-0,-0.008c0.008,0 0.017,0.001 0.026,0.001l12.053,-0c0.696,-0 1.261,-0.566 1.261,-1.262l0,-7.15c0,-0.696 -0.565,-1.261 -1.261,-1.261l-12.053,-0c-0.696,-0 -1.261,0.565 -1.261,1.261Z" style="fill:url(#_Linear3);"/></g><defs><linearGradient id="_Linear1" x1="0" y1="0" x2="1" y2="0" gradientUnits="userSpaceOnUse" gradientTransform="matrix(9.67257,0,0,9.67257,0,9.67252)"><stop offset="0" style="stop-color:#fe6956;stop-opacity:1"/><stop offset="1" style="stop-color:#ff7462;stop-opacity:1"/></linearGradient><linearGradient id="_Linear2" x1="0" y1="0" x2="1" y2="0" gradientUnits="userSpaceOnUse" gradientTransform="matrix(19.3451,0,0,19.3451,0,12.8631)"><stop offset="0" style="stop-color:#ff7462;stop-opacity:1"/><stop offset="1" style="stop-color:#e85733;stop-opacity:1"/></linearGradient><linearGradient id="_Linear3" x1="0" y1="0" x2="1" y2="0" gradientUnits="userSpaceOnUse" gradientTransform="matrix(14.576,0,0,14.576,9.67257,5.4744)"><stop offset="0" style="stop-color:#ff7462;stop-opacity:1"/><stop offset="1" style="stop-color:#e85733;stop-opacity:1"/></linearGradient></defs></svg>