<svg width="100" height="100" viewBox="0 0 100 100" fill="none" xmlns="http://www.w3.org/2000/svg">
<circle cx="50" cy="50" r="50" fill="white"/>
<path fill-rule="evenodd" clip-rule="evenodd" d="M56.6151 31.6149C56.7312 31.4985 56.8691 31.4061 57.021 31.3431C57.1729 31.2801 57.3357 31.2477 57.5001 31.2477C57.6645 31.2477 57.8273 31.2801 57.9792 31.3431C58.131 31.4061 58.269 31.4985 58.3851 31.6149L68.3851 41.6149C68.5015 41.731 68.5938 41.869 68.6569 42.0208C68.7199 42.1727 68.7523 42.3355 68.7523 42.4999C68.7523 42.6643 68.7199 42.8271 68.6569 42.979C68.5938 43.1309 68.5015 43.2688 68.3851 43.3849L63.6301 48.1399L61.5576 56.4224C61.4 57.0531 61.0811 57.6319 60.6323 58.1022C60.1835 58.5725 59.6202 58.918 58.9976 59.1049L33.1351 66.8649L40.8951 40.9999C41.0821 40.3781 41.4274 39.8154 41.8972 39.3671C42.367 38.9188 42.9452 38.6002 43.5751 38.4424L51.8576 36.3724L56.6151 31.6149ZM52.1151 38.8849L44.1826 40.8674C43.972 40.92 43.7787 41.0264 43.6218 41.1764C43.4649 41.3263 43.3497 41.5145 43.2876 41.7224L36.8626 63.1349L58.2801 56.7099C58.4868 56.6473 58.6737 56.5321 58.8227 56.3757C58.9717 56.2193 59.0776 56.0269 59.1301 55.8174L61.1151 47.8824L52.1151 38.8824V38.8849Z" fill="#101929"/>
<path fill-rule="evenodd" clip-rule="evenodd" d="M37.0799 63.07L49.9999 52.5C50.4944 52.5 50.9777 52.3534 51.3889 52.0787C51.8 51.804 52.1204 51.4135 52.3096 50.9567C52.4988 50.4999 52.5484 49.9972 52.4519 49.5123C52.3554 49.0273 52.1173 48.5819 51.7677 48.2322C51.4181 47.8826 50.9726 47.6445 50.4877 47.548C50.0027 47.4516 49.5 47.5011 49.0432 47.6903C48.5864 47.8795 48.196 48.2 47.9213 48.6111C47.6466 49.0222 47.4999 49.5055 47.4999 50L36.9299 62.92L36.8649 63.135L37.0799 63.07Z" fill="#101929"/>
</svg>
