<svg width="161" height="60" viewBox="0 0 161 60" fill="none" xmlns="http://www.w3.org/2000/svg">
<path d="M13.1973 13.4436L13.2147 23.3723C13.3064 23.384 13.3979 23.3956 13.5007 23.4013C13.5982 23.4071 13.7528 23.4071 13.9534 23.4071C15.2931 23.4071 16.255 23.0291 16.8279 22.2674C17.406 21.5061 17.6924 20.2231 17.6924 18.4251C17.6924 16.6042 17.4003 15.31 16.8221 14.5487C16.2378 13.7871 15.2585 13.409 13.8845 13.409C13.707 13.409 13.5638 13.409 13.4665 13.4148C13.3633 13.4207 13.2775 13.4322 13.1973 13.4436ZM6.97301 34.9163V33.9601H8.59932V13.4436H6.97301V12.4872H14.3025C17.0854 12.4872 19.1697 12.9567 20.5438 13.8902C21.9183 14.8236 22.6053 16.2435 22.6053 18.1562C22.6053 20.1373 21.8953 21.6604 20.4694 22.7253C19.0438 23.7961 17.0111 24.329 14.3714 24.329C14.0562 24.329 13.8214 24.329 13.6613 24.3232C13.495 24.3173 13.3405 24.3116 13.1973 24.3116V33.9601H15.0927V34.9163H6.97301Z" fill="#B32E30"/>
<path d="M63.3678 22.9775L60.2447 34.1527H61.868V34.9163H58.21V34.1527H59.3898L64.2776 17.0059H65.3522L69.8516 34.1527H70.8026V34.9163H64.9363V34.1527H66.2211L63.3678 22.9775Z" fill="#B32E30"/>
<path d="M25.7016 22.9775L22.5786 34.1527H24.2018V34.9163H20.5438V34.1527H21.7236L26.6116 17.0059H27.6861L32.1855 34.1527H33.1365V34.9163H27.27V34.1527H28.5549L25.7016 22.9775Z" fill="#B32E30"/>
<path d="M48.5014 34.9163V34.1527H50.3348V17.742H50.12C49.2374 17.742 48.5334 18.1261 48.0119 18.8895C47.4908 19.6533 47.0656 20.9246 46.7454 22.7121H46.0871L46.2469 17.0059H58.1356L58.268 22.7121H57.6372C57.2987 20.897 56.8689 19.6167 56.3524 18.8668C55.8356 18.117 55.136 17.742 54.2627 17.742H54.0477V34.1527H55.8812V34.9163H48.5014Z" fill="#B32E30"/>
<path d="M34.8754 34.9163V29.5162H35.479C35.6665 31.1074 36.0962 32.3236 36.773 33.1742C37.4451 34.0201 38.314 34.4453 39.3794 34.4453C40.1565 34.4453 40.7968 34.1893 41.2997 33.6772C41.8073 33.1603 42.0588 32.5021 42.0588 31.7018C42.0588 31.0388 41.8759 30.4443 41.51 29.9186C41.1443 29.3927 40.2664 28.652 38.8808 27.6962C37.2988 26.5897 36.238 25.5884 35.6939 24.7013C35.1497 23.8143 34.8754 22.7489 34.8754 21.5096C34.8754 20.0876 35.2732 18.9308 36.0732 18.0392C36.8736 17.1476 37.8978 16.6994 39.1506 16.6994C39.6855 16.6994 40.2024 16.791 40.6962 16.9785C41.1946 17.1659 41.7067 17.4585 42.2327 17.8516L42.8086 16.9236H43.4122V21.6697H42.8086C42.5068 20.2659 42.0314 19.2006 41.3866 18.4736C40.7465 17.7464 39.9553 17.3808 39.0134 17.3808C38.3278 17.3808 37.7469 17.6001 37.2805 18.0392C36.8096 18.4736 36.5764 19.0085 36.5764 19.6305C36.5764 20.6226 37.5822 21.7885 39.5943 23.1284C40.0925 23.4668 40.4767 23.732 40.7465 23.9194C41.8347 24.6785 42.6349 25.5287 43.1424 26.4707C43.6499 27.4129 43.906 28.5194 43.906 29.786C43.906 31.3909 43.4808 32.6987 42.6349 33.7092C41.7844 34.7197 40.7008 35.2226 39.3794 35.2226C38.8488 35.2226 38.323 35.1221 37.7972 34.9209C37.2713 34.7197 36.732 34.4133 36.1877 34.0018L35.479 34.9163H34.8754Z" fill="#B32E30"/>
<path d="M75.3639 46.5821C75.3639 45.1005 75.5606 43.7745 75.9584 42.6131C76.3564 41.4472 76.969 40.3955 77.7875 39.4582C78.3956 38.7585 79.0678 38.2281 79.7993 37.8625C80.5308 37.4965 81.2764 37.3138 82.0352 37.3138C82.8127 37.3138 83.5763 37.5013 84.3216 37.8716C85.0669 38.2418 85.7343 38.7676 86.3243 39.4582C87.1335 40.3955 87.7419 41.4472 88.1396 42.6131C88.5374 43.7745 88.734 45.1005 88.734 46.5821C88.734 48.0636 88.5374 49.385 88.1442 50.5419C87.751 51.6988 87.1426 52.7458 86.3243 53.6922C85.7252 54.3829 85.0531 54.9177 84.3079 55.2972C83.5625 55.6769 82.8035 55.8644 82.0352 55.8644C81.2855 55.8644 80.5446 55.6769 79.8131 55.3018C79.0817 54.9268 78.4048 54.3919 77.7875 53.6922C76.9599 52.7458 76.3472 51.6988 75.9538 50.5419C75.5606 49.385 75.3639 48.0636 75.3639 46.5821ZM84.5273 49.5176V43.6511C84.5273 41.685 84.3307 40.2584 83.9375 39.3759C83.5443 38.4933 82.9087 38.0497 82.0352 38.0497C81.1619 38.0497 80.5263 38.4933 80.1333 39.3759C79.7399 40.2584 79.5433 41.685 79.5433 43.6511V49.5176C79.5433 51.4884 79.7399 52.9196 80.1379 53.8112C80.5355 54.6984 81.1712 55.1417 82.0352 55.1417C82.9087 55.1417 83.5443 54.6984 83.9375 53.8112C84.3307 52.9196 84.5273 51.4884 84.5273 49.5176Z" fill="#B32E30"/>
<path d="M64.0587 55.5304V54.767H65.8922V38.3561H65.6773C64.7948 38.3561 64.0907 38.7402 63.5695 39.5038C63.0482 40.2676 62.623 41.5387 62.3028 43.3264H61.6445L61.8044 37.62H73.693L73.8254 43.3264H73.1946C72.8561 41.5113 72.4263 40.2309 71.9098 39.4809C71.393 38.7312 70.6934 38.3561 69.82 38.3561H69.6051V54.767H71.4386V55.5304H64.0587Z" fill="#B32E30"/>
<path d="M51.075 55.5304V50.1304H51.6787C51.8662 51.7216 52.296 52.9379 52.9727 53.7883C53.6448 54.6342 54.5138 55.0594 55.579 55.0594C56.3563 55.0594 56.9966 54.8036 57.4995 54.2913C58.0071 53.7746 58.2585 53.1162 58.2585 52.316C58.2585 51.653 58.0757 51.0584 57.7098 50.5328C57.3439 50.0068 56.466 49.2661 55.0806 48.3107C53.4985 47.2039 52.4377 46.2026 51.8937 45.3156C51.3495 44.4285 51.075 43.363 51.075 42.1238C51.075 40.7019 51.473 39.5449 52.2731 38.6533C53.0734 37.7619 54.0976 37.3138 55.3504 37.3138C55.8853 37.3138 56.402 37.4051 56.896 37.5927C57.3942 37.7802 57.9064 38.0726 58.4325 38.4658L59.0084 37.5377H59.612V42.2839H59.0084C58.7066 40.88 58.2311 39.8147 57.5862 39.0879C56.9463 38.3607 56.1551 37.9949 55.2132 37.9949C54.5273 37.9949 53.9466 38.2144 53.4802 38.6533C53.0093 39.0879 52.7761 39.6228 52.7761 40.2447C52.7761 41.2369 53.782 42.403 55.7939 43.7425C56.2924 44.0809 56.6765 44.3462 56.9463 44.5335C58.0345 45.2927 58.8347 46.1432 59.3422 47.0851C59.8497 48.027 60.1058 49.1335 60.1058 50.4002C60.1058 52.0051 59.6806 53.313 58.8347 54.3233C57.9842 55.3338 56.9005 55.8369 55.579 55.8369C55.0486 55.8369 54.5228 55.7363 53.9969 55.5351C53.4711 55.3339 52.9316 55.0274 52.3875 54.6161L51.6787 55.5304H51.075Z" fill="#B32E30"/>
<path d="M37.285 55.5304V54.767H38.5836V38.3835H37.285V37.62H48.1218L48.2958 42.1742H47.6509C47.276 40.711 46.7776 39.7095 46.1604 39.1793C45.5385 38.6489 44.5507 38.3835 43.1927 38.3835H42.2556V45.6014H45.4423V46.7684L42.2488 46.7621L42.2556 50.5694V54.767H43.2202C44.7566 54.767 45.8815 54.3829 46.5947 53.6099C47.308 52.8373 47.7652 51.5113 47.9619 49.6367H48.6433L48.401 55.5304H37.285Z" fill="#B32E30"/>
<path d="M4.01022 44.0246C3.52135 43.7317 3.15385 43.3442 2.9031 42.8661C2.65666 42.3882 2.53129 41.8281 2.53129 41.1865C2.53129 40.071 2.86972 39.1839 3.54642 38.525C4.22297 37.8702 5.14611 37.5428 6.31185 37.5428C7.27652 37.5428 8.04106 37.7969 8.61347 38.3009C9.18557 38.8047 9.46969 39.4811 9.46969 40.3295C9.46969 40.9194 9.30678 41.3934 8.98512 41.7549C8.66362 42.1167 8.2415 42.2976 7.7194 42.2976C7.36021 42.2976 7.07608 42.2073 6.85887 42.0222C6.64166 41.8367 6.53321 41.5827 6.53321 41.2641C6.53321 40.9969 6.62089 40.7686 6.79626 40.5834C6.97178 40.3982 7.18484 40.3079 7.43958 40.3079C7.51065 40.3122 7.58172 40.325 7.65264 40.3381C7.7194 40.3508 7.78201 40.3639 7.84047 40.3811C7.75294 40.0023 7.57342 39.7048 7.30175 39.4938C7.03424 39.2783 6.69581 39.1708 6.28662 39.1708C5.71437 39.1708 5.25487 39.3819 4.90398 39.7997C4.55309 40.2216 4.37773 40.7817 4.37773 41.4792C4.37773 41.9747 4.47372 42.3839 4.67001 42.7111C4.86645 43.0343 5.15888 43.2579 5.543 43.383C5.63084 43.4175 5.78113 43.4562 5.99434 43.4995C6.55813 43.607 6.8381 43.8654 6.8381 44.2658C6.8381 44.7396 6.41599 45.0196 5.56823 45.1101C5.35517 45.1359 5.19626 45.153 5.08766 45.1619C4.19805 45.2825 3.50058 45.6914 2.99079 46.3976C2.48114 47.1083 2.2264 48.0258 2.2264 49.1543C2.2264 50.4892 2.69851 51.579 3.63826 52.4146C4.58232 53.2544 5.80636 53.6722 7.31836 53.6722C8.9642 53.6722 10.2968 53.2414 11.3118 52.38C12.3268 51.5145 12.8364 50.3903 12.8364 48.9992C12.8364 48.1162 12.6026 47.4055 12.1388 46.8714C11.6753 46.3375 11.0611 46.0704 10.3051 46.0704C9.6826 46.0704 9.19818 46.23 8.84729 46.5442C8.4964 46.8585 8.32103 47.2939 8.32103 47.8492C8.32103 48.2413 8.41703 48.5642 8.61347 48.8054C8.8096 49.0509 9.06019 49.1714 9.37355 49.1714H9.54492C9.51138 49.0811 9.48646 48.9906 9.46969 48.9002C9.45292 48.814 9.44462 48.7237 9.44462 48.6288C9.44462 48.379 9.51969 48.1765 9.66598 48.0258C9.81243 47.8749 10.0086 47.7975 10.255 47.7975C10.5808 47.7975 10.8231 47.8966 10.9819 48.0862C11.1408 48.2799 11.2198 48.5856 11.2198 48.9948C11.2198 49.5506 11.0237 49.9984 10.6268 50.3386C10.2341 50.6789 9.70367 50.8512 9.04358 50.8512C8.27504 50.8512 7.65264 50.5798 7.16376 50.033C6.67935 49.486 6.43707 48.7708 6.43707 47.8881C6.43707 46.7941 6.80457 45.9154 7.54388 45.2565C8.28335 44.5975 9.26094 44.2658 10.4764 44.2658C10.8857 44.2658 11.433 44.3046 12.1222 44.3778C12.8115 44.4555 13.2918 44.4941 13.5591 44.4941C14.7749 44.4941 15.6686 44.2572 16.2407 43.7877C16.8131 43.3139 17.0777 42.4149 17.0777 41.3943C17.0777 40.6751 16.9104 40.1192 16.5808 39.7318C16.2509 39.3443 15.7788 39.1503 15.1688 39.1503C14.6967 39.1503 14.3165 39.2756 14.0366 39.5292C13.7571 39.7832 13.615 40.1195 13.615 40.5371C13.615 40.5888 13.619 40.6448 13.6314 40.7094C13.6442 40.7697 13.6651 40.8429 13.6899 40.9163C13.7359 40.8903 13.8028 40.8517 13.8822 40.7913C14.1954 40.5717 14.4463 40.4639 14.6426 40.4639C14.9349 40.4639 15.1645 40.5501 15.3274 40.7223C15.4905 40.8946 15.5739 41.1357 15.5739 41.446C15.5739 41.8938 15.4194 42.247 15.1144 42.5054C14.8055 42.7681 14.3834 42.8974 13.8447 42.8974C13.2681 42.8974 12.7878 42.6775 12.4076 42.2342C12.0274 41.7947 11.8395 41.2349 11.8395 40.5631C11.8395 39.6801 12.1319 38.9567 12.7126 38.3924C13.2975 37.8326 14.0492 37.5482 14.9725 37.5482C16.1797 37.5482 17.1237 37.8886 17.8046 38.569C18.4854 39.2539 18.8282 40.2013 18.8282 41.4201C18.8282 42.7768 18.4465 43.9988 17.6404 44.7784C16.8384 45.5579 15.7355 45.9457 14.332 45.9457C14.1606 45.9457 13.9811 45.9414 13.7931 45.9283C13.6053 45.9154 13.413 45.8938 13.2167 45.868C13.7388 46.1912 14.1357 46.6218 14.4028 47.1643C14.6744 47.7072 14.8081 48.3445 14.8081 49.0769C14.8081 49.6712 14.708 50.2697 14.5074 50.8598C14.3069 51.4542 14.0186 52.0226 13.6344 52.5609C12.916 53.5602 12.0094 54.3096 10.9109 54.8134C9.81243 55.3132 8.52148 55.5629 7.03854 55.5629C4.89152 55.5629 3.18292 54.9857 1.90889 53.8317C0.634861 52.6815 0 51.1439 0 49.2274C0 47.8707 0.37581 46.7081 1.13204 45.7303C1.88397 44.7527 2.84465 44.184 4.01022 44.0246Z" fill="#BFBF4F"/>
<path d="M26.7429 38.5275L26.7602 48.4562C26.8518 48.4677 26.9435 48.4791 27.0463 48.485C27.1437 48.4908 27.2984 48.4908 27.499 48.4908C28.8387 48.4908 29.8006 48.1127 30.3733 47.3511C30.9516 46.5898 31.2379 45.3068 31.2379 43.509C31.2379 41.6878 30.9458 40.3939 30.3677 39.6326C29.7834 38.8708 28.8041 38.4929 27.4299 38.4929C27.2526 38.4929 27.1094 38.4929 27.0121 38.4986C26.9089 38.5043 26.8231 38.5158 26.7429 38.5275ZM20.5186 60V59.0439H22.1449V38.5273L20.5186 38.5275V37.571H27.8481C30.6309 37.571 32.7151 38.0406 34.0893 38.9739C35.4638 39.9073 36.1508 41.3272 36.1508 43.2398C36.1508 45.221 35.4407 46.7441 34.015 47.8092C32.5894 48.88 30.5567 49.4126 27.9168 49.4126C27.6016 49.4126 27.3669 49.4126 27.2067 49.4069C27.0406 49.401 26.8861 49.3953 26.7429 49.3953V59.0439H28.6383V59.9998L20.5186 60Z" fill="#B32E30"/>
<path d="M7.15684 7.7191V1.90212H10.0633V2.5416H7.92553V4.40742H10.0001V5.06166H7.92553V7.07962H10.0633V7.7191H7.15684ZM19.7504 7.7191V1.90212H20.9889L22.2394 5.90035C22.2623 5.98526 22.2946 6.10356 22.3351 6.25831C22.3767 6.41184 22.424 6.60044 22.479 6.8238C22.5195 6.63412 22.5572 6.45906 22.5961 6.29754C22.6339 6.13586 22.6689 6.00126 22.6998 5.89358L23.9195 1.90212H25.1136V7.7191H24.4042V3.55796C24.4042 3.32245 24.4056 3.10831 24.4081 2.91987C24.4109 2.73004 24.4149 2.5376 24.4202 2.33977L22.7793 7.7191H22.1251L20.4437 2.28439C20.4517 2.49176 20.4583 2.71527 20.4625 2.95479C20.4666 3.19461 20.468 3.4489 20.468 3.71948V7.7191H19.7504ZM35.7941 2.55637V4.46664H36.3972C36.8401 4.46664 37.1348 4.39803 37.283 4.25928C37.4325 4.12068 37.5065 3.86624 37.5065 3.49612C37.5065 3.14877 37.4391 2.9051 37.3059 2.76496C37.1713 2.62636 36.937 2.55637 36.603 2.55637H35.7941ZM36.6114 1.90212C37.2319 1.90212 37.6654 2.02196 37.9131 2.26163C38.1594 2.49991 38.2832 2.91449 38.2832 3.50412C38.2832 4.06145 38.162 4.47064 37.9198 4.73062C37.6788 4.99028 37.2991 5.12089 36.7809 5.12089H35.7941V7.7191H35.0254V1.90212H36.6114ZM51.5473 4.8746C51.5473 5.49239 51.523 5.96219 51.4758 6.28124C51.4287 6.60044 51.3519 6.85349 51.247 7.04055C51.1003 7.29221 50.8943 7.48481 50.6305 7.61803C50.3666 7.7514 50.0556 7.81739 49.6975 7.81739C49.4053 7.81739 49.1415 7.77155 48.9072 7.68125C48.6717 7.59111 48.4779 7.45912 48.3244 7.28821C48.1495 7.09439 48.0255 6.83195 47.9543 6.50214C47.8829 6.17232 47.8478 5.60822 47.8478 4.81261C47.8478 4.13683 47.8707 3.64149 47.9152 3.32921C47.9596 3.01694 48.0362 2.76635 48.1441 2.57929C48.2854 2.33023 48.4887 2.14041 48.7525 2.0098C49.0177 1.87936 49.3327 1.81475 49.6975 1.81475C49.9897 1.81475 50.2534 1.85905 50.4877 1.94935C50.7234 2.03811 50.917 2.16871 51.0707 2.33977C51.243 2.53898 51.3668 2.8068 51.4382 3.142C51.5108 3.4772 51.5473 4.05468 51.5473 4.8746ZM50.7623 4.81261C50.7623 3.82855 50.6843 3.19184 50.528 2.90249C50.3705 2.61298 50.092 2.46899 49.6895 2.46899C49.5132 2.46899 49.3583 2.50114 49.2224 2.56575C49.0863 2.63036 48.9786 2.72327 48.8965 2.84711C48.7997 2.9954 48.7309 3.18907 48.6893 3.43013C48.6488 3.66964 48.6286 4.13144 48.6286 4.81261C48.6286 5.39286 48.6408 5.80067 48.6663 6.03495C48.6905 6.26908 48.7323 6.45368 48.7903 6.5869C48.8777 6.78211 48.9934 6.9261 49.1415 7.02178C49.2883 7.11592 49.4713 7.163 49.6895 7.163C50.092 7.163 50.3705 7.01763 50.528 6.7255C50.6843 6.43353 50.7623 5.79528 50.7623 4.81261ZM49.1335 1.3731L49.9385 0H50.7314L49.6073 1.3731H49.1335ZM62.1293 4.43034H62.6936C63.1149 4.43034 63.4204 4.34819 63.6103 4.18529C63.8013 4.02238 63.897 3.75994 63.897 3.39644C63.897 3.10016 63.8215 2.8768 63.6721 2.73004C63.5213 2.58344 63.2952 2.50929 62.9923 2.50929H62.1293V4.43034ZM62.8859 1.90212C63.5066 1.90212 63.9588 2.01396 64.2416 2.23732C64.5243 2.46084 64.6656 2.81634 64.6656 3.30214C64.6656 3.68856 64.5835 3.99807 64.4194 4.23113C64.255 4.46403 64.0033 4.62817 63.6627 4.72231C63.9764 4.756 64.1985 4.86522 64.3305 5.04828C64.4611 5.22995 64.5269 5.52746 64.5269 5.94081C64.5269 6.0228 64.5257 6.12787 64.5229 6.25831C64.5203 6.38769 64.5189 6.47906 64.5189 6.53167C64.5189 6.75257 64.5311 6.96117 64.5565 7.15761C64.5808 7.35282 64.6199 7.54004 64.6725 7.7191H63.8808C63.8013 7.45912 63.7596 7.02701 63.7542 6.42138C63.7516 6.20324 63.7475 6.03495 63.7421 5.91789C63.7341 5.59884 63.6789 5.37671 63.5752 5.25149C63.4703 5.12489 63.2952 5.06166 63.0476 5.06166H62.1293V7.7191H61.3608V1.90212H62.8859ZM74.5938 7.7191V1.90212H75.3785V7.7191H74.5938ZM88.9023 4.8746C88.9023 5.49239 88.878 5.96219 88.8309 6.28124C88.7838 6.60044 88.707 6.85349 88.6021 7.04055C88.4554 7.29221 88.2492 7.48481 87.9854 7.61803C87.7218 7.7514 87.4107 7.81739 87.0526 7.81739C86.7605 7.81739 86.4967 7.77155 86.2624 7.68125C86.0267 7.59111 85.833 7.45912 85.6795 7.28821C85.5044 7.09439 85.3806 6.83195 85.3094 6.50214C85.2378 6.17232 85.2029 5.60822 85.2029 4.81261C85.2029 4.13683 85.2258 3.64149 85.2701 3.32921C85.3146 3.01694 85.3914 2.76635 85.4992 2.57929C85.6404 2.33023 85.8438 2.14041 86.1076 2.0098C86.3727 1.87936 86.6879 1.81475 87.0526 1.81475C87.3447 1.81475 87.6085 1.85905 87.8428 1.94935C88.0785 2.03811 88.2722 2.16871 88.4257 2.33977C88.598 2.53898 88.7218 2.8068 88.7932 3.142C88.866 3.4772 88.9023 4.05468 88.9023 4.8746ZM88.1174 4.81261C88.1174 3.82855 88.0393 3.19184 87.8831 2.90249C87.7256 2.61298 87.4472 2.46899 87.0446 2.46899C86.8681 2.46899 86.7132 2.50114 86.5774 2.56575C86.4414 2.63036 86.3337 2.72327 86.2516 2.84711C86.1547 2.9954 86.0861 3.18907 86.0444 3.43013C86.0039 3.66964 85.9838 4.13144 85.9838 4.81261C85.9838 5.39286 85.9959 5.80067 86.0215 6.03495C86.0456 6.26908 86.0875 6.45368 86.1453 6.5869C86.2328 6.78211 86.3485 6.9261 86.4967 7.02178C86.6434 7.11592 86.8265 7.163 87.0446 7.163C87.4472 7.163 87.7256 7.01763 87.8831 6.7255C88.0393 6.43353 88.1174 5.79528 88.1174 4.81261Z" fill="#B32E30"/>
<path fill-rule="evenodd" clip-rule="evenodd" d="M145.579 46.1108C149.129 46.3873 151.97 47.5414 154.162 52.1742C150.144 52.2091 146.788 50.0262 145.579 46.1108ZM119.95 34.3991C117.383 32.2179 112.37 29.4944 108.724 34.2854C107.654 35.6919 107.934 37.9712 109.031 39.3277C110.806 41.524 114.477 41.2163 115.417 38.5803C116.016 36.9021 114.909 35.054 113.006 35.0571C114.976 36.5288 113.545 38.9656 111.617 38.4264C110.674 38.1623 109.953 37.2604 110.273 35.7796C110.528 34.5963 111.489 33.8632 112.63 33.646C115.028 33.1894 117.52 35.0401 118.277 37.2781C118.639 38.3501 119.075 39.6675 119.318 43.521C119.263 46.5513 119.244 49.7309 120.291 52.4128C111.555 54.0221 104.472 50.312 104.286 41.5457C104.154 35.3436 107.708 29.1713 115.172 28.6849C105.566 26.8008 97.53 32.9353 97.6205 41.937C97.7926 59.0615 121.66 55.8616 131.474 54.2093C130.188 54.0112 128.034 52.6533 126.929 50.8943C130.617 52.653 135.81 53.1399 137.821 48.7488C138.551 46.8088 138.014 44.7317 137.071 43.5644C135.031 41.04 130.812 41.3935 129.73 44.4234C129.042 46.3523 130.314 48.4765 132.502 48.4733C130.237 46.7813 131.882 43.9805 134.098 44.6001C135.183 44.9036 136.011 45.9406 135.644 47.6426C135.35 49.0025 134.246 49.8453 132.934 50.0951C130.178 50.6199 127.314 48.4927 126.444 45.9202C124.388 39.8397 129.399 30.7187 126.901 22.697C125.659 18.7071 121.704 17.2277 115.781 15.7777C118.969 20.6375 120.966 26.1684 120.102 33.1822C120.052 33.5829 120.001 33.9889 119.95 34.3991ZM97.6499 2.37454C98.6033 9.26295 95.2721 22.1717 104.003 26.4896C106.398 27.6738 109.383 27.2095 110.583 24.9123C111.109 23.7945 110.811 22.7099 110.252 22.01C109.046 20.4972 106.418 20.2779 105.633 22.0257C105.132 23.1387 105.608 24.5298 107.312 24.6085C105.937 23.5777 107.127 21.8536 108.45 22.3794C109.042 22.6147 109.473 23.1985 109.183 24.185C108.784 25.548 107.046 25.9602 105.667 25.2559C100.665 22.8996 100.806 11.1514 101.138 7.8094C101.866 11.3132 102.694 17.4892 107.358 18.6902C109.458 19.2315 111.736 18.4185 112.376 16.3587C113.164 13.8248 109.536 12.5697 108.5 15.2318C104.468 14.4635 104.897 9.02328 101.638 4.74847C103.895 4.61402 113.386 3.74241 115.728 8.9196C114.715 9.1285 114.291 10.1489 114.76 10.9169C115.136 11.534 116.194 12.1567 116.895 11.6929C118.483 10.643 117.71 8.4638 115.912 6.81365C111.581 2.84019 101.443 2.2404 97.6499 2.37454ZM112.523 11.8207C108.973 11.5441 106.132 10.3902 103.94 5.75744C107.958 5.72252 111.314 7.90539 112.523 11.8207ZM138.152 23.5326C140.719 25.7138 145.733 28.4371 149.378 23.646C150.448 22.2394 150.168 19.9604 149.071 18.6039C147.296 16.4076 143.625 16.7151 142.685 19.3514C142.086 21.0295 143.193 22.8776 145.096 22.8745C143.126 21.4027 144.557 18.9659 146.484 19.5052C147.428 19.7692 148.149 20.6714 147.829 22.1518C147.574 23.3351 146.613 24.0684 145.472 24.2855C143.075 24.7422 140.582 22.8913 139.825 20.6532C139.463 19.5812 139.027 18.2639 138.784 14.4106C138.839 11.3803 138.858 8.20074 137.811 5.5187C146.547 3.90947 153.63 7.61957 153.816 16.3858C153.948 22.5878 150.394 28.7601 142.93 29.2465C152.536 31.1307 160.572 24.9963 160.481 15.9946C160.309 -1.12989 136.442 2.0698 126.628 3.72226C127.914 3.92024 130.068 5.27826 131.173 7.03732C127.485 5.27857 122.292 4.79169 120.281 9.18265C119.551 11.1228 120.087 13.1998 121.031 14.3672C123.072 16.8914 127.29 16.5379 128.372 13.5082C129.06 11.5792 127.788 9.45493 125.6 9.45816C127.865 11.1503 126.22 13.9511 124.004 13.3313C122.919 13.0278 122.091 11.9908 122.459 10.289C122.752 8.92914 123.856 8.08629 125.168 7.83647C127.924 7.31175 130.788 9.43893 131.658 12.0115C133.714 18.0919 128.703 27.2129 131.201 35.2344C132.444 39.2243 136.398 40.7039 142.321 42.1538C139.134 37.2941 137.136 31.7632 138 24.7493C138.05 24.3487 138.101 23.9428 138.152 23.5326ZM160.452 55.5569C159.499 48.6687 162.83 35.7599 154.099 31.442C151.704 30.2578 148.72 30.7219 147.519 33.0193C146.993 34.1371 147.291 35.2215 147.849 35.9216C149.056 37.4342 151.684 37.6537 152.469 35.9059C152.97 34.7928 152.494 33.4018 150.79 33.3231C152.165 34.3539 150.975 36.0779 149.652 35.5522C149.06 35.3169 148.629 34.7331 148.919 33.7466C149.319 32.3835 151.056 31.9712 152.435 32.6756C157.437 35.0318 157.297 46.7801 156.964 50.1221C156.236 46.6182 155.408 40.4422 150.744 39.2411C148.644 38.7001 146.366 39.5131 145.726 41.5729C144.938 44.1066 148.566 45.3619 149.602 42.6998C153.634 43.4679 153.205 48.9083 156.464 53.183C154.207 53.3174 144.716 54.189 142.374 49.0119C143.387 48.8031 143.811 47.7826 143.342 47.0147C142.966 46.3975 141.908 45.7749 141.207 46.2387C139.619 47.2886 140.392 49.4678 142.19 51.118C146.521 55.0913 156.659 55.6912 160.452 55.5569Z" fill="#BFBF4F"/>
</svg>
