<svg width="264" height="60" viewBox="0 0 264 60" fill="none" xmlns="http://www.w3.org/2000/svg">
<path d="M75.8336 22.9349L80.0077 13.3636C80.2019 12.9754 80.2794 12.6842 80.2794 12.49C80.2794 12.2571 80.1048 12.0823 79.7359 12.0047V11.694H82.6674V12.0047C82.3762 12.0823 82.1627 12.1988 82.0656 12.3541C81.9491 12.49 81.7355 12.9172 81.4443 13.6161L77.2508 23.0125C77.0955 23.3814 77.0179 23.6532 77.0179 23.8279C77.0179 24.0803 77.1926 24.255 77.5615 24.3327V24.6433H73.9505V24.3327C74.3194 24.255 74.494 24.0803 74.494 23.8085C74.494 23.6532 74.4164 23.3814 74.261 23.0125L70.0094 13.3248C69.7764 12.8006 69.6016 12.4706 69.4852 12.3347C69.3687 12.1988 69.1745 12.0823 68.8833 12.0047V11.694H71.9702V12.0047C71.6013 12.0823 71.4072 12.2571 71.4072 12.49C71.4072 12.7035 71.4849 12.9948 71.6596 13.3636L75.8336 22.9349Z" fill="white"/>
<path d="M91.6784 21.6535H86.1259L85.3105 23.4397C85.2135 23.6532 85.1552 23.8279 85.1552 23.925C85.1552 24.158 85.33 24.2939 85.66 24.391V24.6433H83.0391V24.391C83.2915 24.3521 83.4856 24.255 83.6409 24.0998C83.7768 23.9444 83.9515 23.6338 84.1457 23.2067L87.6597 15.5575C87.8538 15.1304 87.9509 14.8391 87.9509 14.6838C87.9509 14.4703 87.7956 14.3344 87.4849 14.2761V14.0237H90.5718V14.2761C90.2417 14.3344 90.0865 14.4897 90.0865 14.6838C90.0865 14.8003 90.2224 15.1498 90.4747 15.6933L93.8528 23.0514C94.0664 23.5367 94.2605 23.8668 94.4352 24.0609C94.5906 24.2356 94.8041 24.3521 95.0565 24.391V24.6433H92.2997V24.391C92.5909 24.3327 92.7268 24.2162 92.7268 24.0609C92.7268 23.9832 92.6491 23.7891 92.5132 23.4397L91.6784 21.6535ZM91.2513 20.6245L88.9216 15.4216L86.5725 20.6245H91.2513Z" fill="white"/>
<path d="M98.3116 23.6143H104.794C105.047 23.6143 105.241 23.5756 105.357 23.4979C105.454 23.4202 105.551 23.2455 105.61 23.0125H105.862V25.2452H105.61C105.551 25.0122 105.454 24.8569 105.357 24.7598C105.241 24.6821 105.047 24.6433 104.794 24.6433H96.3508V24.391C96.5837 24.3327 96.7584 24.2356 96.8361 24.1191C96.9137 24.0221 96.9526 23.8279 96.9526 23.5756V15.0916C96.9526 14.8197 96.9137 14.645 96.8361 14.5285C96.7584 14.4315 96.5837 14.3344 96.3508 14.2761V14.0237H98.9135V14.2761C98.6805 14.3344 98.5251 14.4315 98.428 14.5285C98.3504 14.645 98.3116 14.8197 98.3116 15.0916V23.6143Z" fill="white"/>
<path d="M113.657 24.6433L109.133 15.6933V23.5756C109.133 23.8279 109.172 24.0221 109.25 24.1191C109.347 24.2356 109.502 24.3327 109.735 24.391V24.6433H107.406V24.391C107.639 24.3327 107.813 24.2356 107.891 24.1191C107.969 24.0221 108.007 23.8279 108.007 23.5756V15.0916C108.007 14.8197 107.969 14.645 107.891 14.5285C107.813 14.4315 107.639 14.3344 107.406 14.2761V14.0237H110.628V14.2761C110.298 14.3732 110.143 14.5091 110.143 14.6838C110.143 14.7615 110.221 14.975 110.395 15.2857L113.735 22.0613L117.113 15.2857C117.268 14.9945 117.346 14.7809 117.346 14.6838C117.346 14.5091 117.19 14.3732 116.88 14.2761V14.0237H120.122V14.2761C119.889 14.3344 119.734 14.4315 119.637 14.5285C119.559 14.645 119.52 14.8391 119.52 15.0916V23.5756C119.52 23.8279 119.559 24.0221 119.637 24.1191C119.734 24.2356 119.889 24.3327 120.122 24.391V24.6433H117.559V24.391C117.792 24.3327 117.967 24.2356 118.045 24.1191C118.122 24.0221 118.161 23.8279 118.161 23.5756V15.6933L113.657 24.6433Z" fill="white"/>
<path d="M123.209 23.5756V15.0916C123.209 14.8197 123.17 14.645 123.092 14.5285C123.015 14.4315 122.84 14.3344 122.607 14.2761V14.0237H125.17V14.2761C124.937 14.3344 124.781 14.4315 124.684 14.5285C124.607 14.645 124.568 14.8197 124.568 15.0916V23.5756C124.568 23.8279 124.607 24.0221 124.684 24.1191C124.781 24.2356 124.937 24.3327 125.17 24.391V24.6433H122.607V24.391C122.84 24.3327 123.015 24.2356 123.092 24.1191C123.17 24.0221 123.209 23.8279 123.209 23.5756Z" fill="white"/>
<path d="M129.615 19.8286V23.5756C129.615 23.8279 129.654 24.0221 129.732 24.1191C129.829 24.2356 129.984 24.3327 130.217 24.391V24.6433H127.655V24.391C127.907 24.3327 128.062 24.2356 128.14 24.1191C128.218 24.0221 128.256 23.8279 128.256 23.5756V15.0916C128.256 14.8197 128.218 14.645 128.14 14.5285C128.062 14.4315 127.888 14.3344 127.655 14.2761V14.0237H133.963C134.662 14.0237 135.244 14.082 135.71 14.1791C136.156 14.2761 136.545 14.4508 136.875 14.6838C137.612 15.208 137.981 15.9652 137.981 16.9553C137.981 17.7707 137.729 18.4114 137.224 18.8773C136.7 19.3432 135.943 19.6345 134.953 19.7315L137.632 23.9638C137.71 24.1191 137.807 24.2162 137.904 24.2744C138.001 24.3133 138.156 24.3521 138.389 24.391V24.6433H135.768V24.391C136.001 24.3327 136.137 24.255 136.137 24.158C136.137 24.0803 136.059 23.925 135.904 23.692L133.458 19.8286H129.615ZM129.615 18.7997H133.652C134.312 18.7997 134.797 18.7802 135.127 18.722C135.458 18.6831 135.729 18.5861 135.943 18.4696C136.448 18.1784 136.7 17.7124 136.7 17.0135C136.7 16.3534 136.467 15.8487 136.001 15.5187C135.574 15.208 134.836 15.0527 133.807 15.0527H129.615V18.7997Z" fill="white"/>
<path d="M152.581 11.4611C154.872 11.4611 156.716 12.0629 158.095 13.2472C158.891 13.9267 159.473 14.7227 159.861 15.6933C160.191 16.4893 160.347 17.3436 160.347 18.256C160.347 19.4791 159.997 20.644 159.298 21.7117C158.522 22.896 157.454 23.7697 156.076 24.2939C155.066 24.6821 153.901 24.8763 152.6 24.8763C150.348 24.8763 148.504 24.2744 147.126 23.0708C146.349 22.4107 145.747 21.5953 145.359 20.644C145.029 19.848 144.874 19.0326 144.874 18.1589C144.874 16.8776 145.223 15.6933 145.922 14.6062C146.679 13.4413 147.747 12.5871 149.145 12.0435C150.115 11.6747 151.261 11.4805 152.581 11.4611ZM152.581 12.7619C150.64 12.7619 149.106 13.3054 147.98 14.3926C146.951 15.4021 146.427 16.6447 146.427 18.1589C146.427 19.6733 146.951 20.9352 147.98 21.9447C149.106 23.0319 150.64 23.5756 152.6 23.5756C154.581 23.5756 156.114 23.0319 157.26 21.9447C158.289 20.9352 158.794 19.7121 158.794 18.2366C158.794 16.6447 158.289 15.3633 157.26 14.3926C156.639 13.8102 155.959 13.4025 155.26 13.1695C154.484 12.8977 153.591 12.7619 152.581 12.7619Z" fill="white"/>
<path d="M164.741 23.6143H171.225C171.477 23.6143 171.672 23.5756 171.788 23.4979C171.885 23.4202 171.982 23.2455 172.04 23.0125H172.293V25.2452H172.04C171.982 25.0122 171.885 24.8569 171.788 24.7598C171.672 24.6821 171.477 24.6433 171.225 24.6433H162.78V24.391C163.013 24.3327 163.188 24.2356 163.265 24.1191C163.343 24.0221 163.382 23.8279 163.382 23.5756V15.0916C163.382 14.8197 163.343 14.645 163.265 14.5285C163.188 14.4315 163.013 14.3344 162.78 14.2761V14.0237H165.343V14.2761C165.11 14.3344 164.954 14.4315 164.857 14.5285C164.78 14.645 164.741 14.8197 164.741 15.0916V23.6143Z" fill="white"/>
<path d="M174.438 23.5756V15.0916C174.438 14.8197 174.399 14.645 174.321 14.5285C174.244 14.4315 174.069 14.3344 173.836 14.2761V14.0237H176.399V14.2761C176.166 14.3344 176.01 14.4315 175.913 14.5285C175.836 14.645 175.797 14.8197 175.797 15.0916V23.5756C175.797 23.8279 175.836 24.0221 175.913 24.1191C176.01 24.2356 176.166 24.3327 176.399 24.391V24.6433H173.836V24.391C174.069 24.3327 174.244 24.2356 174.321 24.1191C174.399 24.0221 174.438 23.8279 174.438 23.5756Z" fill="white"/>
<path d="M183.716 23.129L187.094 15.3439C187.191 15.1304 187.23 14.9557 187.23 14.8003C187.23 14.5091 187.055 14.3344 186.687 14.2761V14.0237H189.327V14.2761C189.055 14.3538 188.842 14.4703 188.725 14.6256C188.609 14.7615 188.414 15.1304 188.182 15.6933L184.939 23.0708C184.784 23.4202 184.706 23.692 184.706 23.8668C184.706 24.1385 184.881 24.3133 185.25 24.391V24.6433H181.969V24.391C182.318 24.3133 182.493 24.1385 182.493 23.8668C182.493 23.692 182.415 23.4202 182.26 23.0708L178.94 15.6933C178.668 15.1109 178.474 14.7615 178.358 14.6062C178.241 14.4703 178.047 14.3538 177.775 14.2761V14.0237H180.707V14.2761C180.338 14.3344 180.144 14.5091 180.144 14.7809C180.144 14.9362 180.202 15.1304 180.28 15.3439L183.716 23.129Z" fill="white"/>
<path d="M192.582 19.6733V23.6143H199.125C199.397 23.6143 199.572 23.5756 199.688 23.4979C199.805 23.4202 199.882 23.2455 199.94 23.0125H200.212V25.2452H199.94C199.882 25.0122 199.805 24.8569 199.688 24.7598C199.591 24.6821 199.397 24.6433 199.144 24.6433H190.622V24.391C190.874 24.3327 191.029 24.2356 191.107 24.1191C191.185 24.0221 191.223 23.8279 191.223 23.5756V15.0916C191.223 14.8197 191.185 14.645 191.107 14.5285C191.029 14.4315 190.855 14.3344 190.622 14.2761V14.0237H199.086C199.358 14.0237 199.533 13.9849 199.649 13.9073C199.746 13.8102 199.843 13.6549 199.902 13.4219H200.154V15.6546H199.902C199.843 15.4216 199.746 15.2469 199.649 15.1691C199.533 15.0916 199.358 15.0527 199.086 15.0527H192.582V18.6444H196.737C197.009 18.6444 197.184 18.6055 197.3 18.5278C197.397 18.4308 197.494 18.2755 197.552 18.0425H197.805V20.2751H197.552C197.494 20.0421 197.397 19.8674 197.3 19.7898C197.184 19.7121 196.989 19.6733 196.737 19.6733H192.582Z" fill="white"/>
<path d="M203.185 23.5756V15.0916C203.185 14.8197 203.146 14.645 203.069 14.5285C202.991 14.4315 202.816 14.3344 202.583 14.2761V14.0237H205.146V14.2761C204.913 14.3344 204.758 14.4315 204.661 14.5285C204.583 14.645 204.544 14.8197 204.544 15.0916V23.5756C204.544 23.8279 204.583 24.0221 204.661 24.1191C204.758 24.2356 204.913 24.3327 205.146 24.391V24.6433H202.583V24.391C202.816 24.3327 202.991 24.2356 203.069 24.1191C203.146 24.0221 203.185 23.8279 203.185 23.5756Z" fill="white"/>
<path d="M209.592 19.8286V23.5756C209.592 23.8279 209.631 24.0221 209.709 24.1191C209.806 24.2356 209.961 24.3327 210.194 24.391V24.6433H207.632V24.391C207.884 24.3327 208.039 24.2356 208.117 24.1191C208.195 24.0221 208.234 23.8279 208.234 23.5756V15.0916C208.234 14.8197 208.195 14.645 208.117 14.5285C208.039 14.4315 207.865 14.3344 207.632 14.2761V14.0237H213.94C214.639 14.0237 215.221 14.082 215.687 14.1791C216.133 14.2761 216.522 14.4508 216.852 14.6838C217.59 15.208 217.958 15.9652 217.958 16.9553C217.958 17.7707 217.706 18.4114 217.201 18.8773C216.677 19.3432 215.92 19.6345 214.93 19.7315L217.609 23.9638C217.687 24.1191 217.784 24.2162 217.881 24.2744C217.978 24.3133 218.133 24.3521 218.366 24.391V24.6433H215.745V24.391C215.978 24.3327 216.114 24.255 216.114 24.158C216.114 24.0803 216.036 23.925 215.881 23.692L213.435 19.8286H209.592ZM209.592 18.7997H213.629C214.289 18.7997 214.775 18.7802 215.105 18.722C215.435 18.6831 215.706 18.5861 215.92 18.4696C216.425 18.1784 216.677 17.7124 216.677 17.0135C216.677 16.3534 216.444 15.8487 215.978 15.5187C215.551 15.208 214.813 15.0527 213.784 15.0527H209.592V18.7997Z" fill="white"/>
<path d="M227.743 21.6535H222.191L221.375 23.4397C221.278 23.6532 221.22 23.8279 221.22 23.925C221.22 24.158 221.395 24.2939 221.725 24.391V24.6433H219.104V24.391C219.356 24.3521 219.55 24.255 219.705 24.0998C219.841 23.9444 220.016 23.6338 220.21 23.2067L223.724 15.5575C223.918 15.1304 224.015 14.8391 224.015 14.6838C224.015 14.4703 223.86 14.3344 223.549 14.2761V14.0237H226.636V14.2761C226.306 14.3344 226.151 14.4897 226.151 14.6838C226.151 14.8003 226.287 15.1498 226.539 15.6933L229.917 23.0514C230.131 23.5367 230.325 23.8668 230.5 24.0609C230.655 24.2356 230.869 24.3521 231.121 24.391V24.6433H228.364V24.391C228.655 24.3327 228.791 24.2162 228.791 24.0609C228.791 23.9832 228.714 23.7891 228.578 23.4397L227.743 21.6535ZM227.316 20.6245L224.986 15.4216L222.637 20.6245H227.316Z" fill="white"/>
<path d="M235.994 24.0609L237.12 21.6535L237.392 21.7894C237.333 21.9836 237.295 22.1195 237.295 22.2165C237.295 22.3913 237.547 22.6048 238.032 22.8572C238.964 23.3426 239.935 23.5756 240.925 23.5756C241.702 23.5756 242.342 23.4397 242.847 23.1485C243.371 22.8572 243.701 22.4495 243.857 21.9447C243.934 21.6535 243.973 20.9546 243.973 19.8286V12.8201C243.973 12.5483 243.934 12.3735 243.857 12.2571C243.779 12.1406 243.604 12.0629 243.371 12.0047V11.694H246.07V12.0047C245.837 12.0629 245.682 12.16 245.584 12.2571C245.507 12.3735 245.468 12.5677 245.468 12.8201V20.1781C245.468 20.9934 245.449 21.5759 245.39 21.9253C245.352 22.2748 245.235 22.6048 245.06 22.9349C244.691 23.5949 244.109 24.0803 243.313 24.4298C242.614 24.721 241.818 24.8763 240.925 24.8763C240.265 24.8763 239.702 24.8181 239.236 24.7015C238.751 24.6045 238.071 24.3521 237.159 23.9832C236.945 23.8861 236.809 23.8473 236.732 23.8473C236.615 23.8473 236.479 23.9638 236.266 24.1968L235.994 24.0609Z" fill="white"/>
<path d="M250.529 19.8286V23.5756C250.529 23.8279 250.568 24.0221 250.645 24.1191C250.742 24.2356 250.898 24.3327 251.131 24.391V24.6433H248.568V24.391C248.82 24.3327 248.976 24.2356 249.053 24.1191C249.131 24.0221 249.17 23.8279 249.17 23.5756V15.0916C249.17 14.8197 249.131 14.645 249.053 14.5285C248.976 14.4315 248.801 14.3344 248.568 14.2761V14.0237H254.878C255.577 14.0237 256.159 14.082 256.625 14.1791C257.072 14.2761 257.46 14.4508 257.79 14.6838C258.528 15.208 258.896 15.9652 258.896 16.9553C258.896 17.7707 258.644 18.4114 258.139 18.8773C257.615 19.3432 256.858 19.6345 255.868 19.7315L258.547 23.9638C258.625 24.1191 258.722 24.2162 258.819 24.2744C258.916 24.3133 259.071 24.3521 259.304 24.391V24.6433H256.683V24.391C256.916 24.3327 257.052 24.255 257.052 24.158C257.052 24.0803 256.974 23.925 256.819 23.692L254.373 19.8286H250.529ZM250.529 18.7997H254.567C255.227 18.7997 255.713 18.7802 256.043 18.722C256.373 18.6831 256.644 18.5861 256.858 18.4696C257.363 18.1784 257.615 17.7124 257.615 17.0135C257.615 16.3534 257.382 15.8487 256.916 15.5187C256.489 15.208 255.751 15.0527 254.722 15.0527H250.529V18.7997Z" fill="white"/>
<path d="M262.656 22.8184C262.948 22.8184 263.2 22.9155 263.394 23.1096C263.588 23.3231 263.685 23.5561 263.685 23.8473C263.685 24.1386 263.588 24.3715 263.375 24.5657C263.181 24.7792 262.928 24.8763 262.656 24.8763C262.385 24.8763 262.132 24.7792 261.938 24.5657C261.724 24.3715 261.627 24.1191 261.627 23.8473C261.627 23.5561 261.724 23.3231 261.919 23.129C262.132 22.9349 262.365 22.8184 262.656 22.8184Z" fill="white"/>
<path fill-rule="evenodd" clip-rule="evenodd" d="M262.656 22.8184C262.948 22.8184 263.2 22.9155 263.394 23.1096C263.588 23.3231 263.685 23.5561 263.685 23.8473C263.685 24.1386 263.588 24.3715 263.375 24.5657C263.181 24.7792 262.928 24.8763 262.656 24.8763C262.385 24.8763 262.132 24.7792 261.938 24.5657C261.724 24.3715 261.627 24.1191 261.627 23.8473C261.627 23.5561 261.724 23.3231 261.919 23.129C262.132 22.9349 262.365 22.8184 262.656 22.8184Z" fill="white"/>
<path d="M85.1457 45.6899H80.5284L79.7615 47.3418C79.6839 47.497 79.6434 47.6022 79.6434 47.6669C79.6434 47.7964 79.7745 47.8886 80.022 47.9274V48.1345H78.0968V47.9274C78.265 47.9015 78.409 47.8352 78.4996 47.7316C78.5902 47.6411 78.7083 47.4323 78.8507 47.0942L82.0249 40.2523C82.1025 40.0841 82.1414 39.9789 82.1414 39.9142C82.1414 39.7977 82.0379 39.7201 81.8292 39.6667V39.4596H83.9372V39.6667C83.7285 39.733 83.625 39.8236 83.625 39.9272C83.625 39.9789 83.6638 40.0841 83.7414 40.2523L86.7846 46.8467C87.0062 47.3418 87.1487 47.6281 87.2279 47.7057C87.2926 47.7964 87.4609 47.8611 87.6954 47.9274V48.1345H85.6408V47.9274C85.8867 47.8886 86.0049 47.7964 86.0049 47.6411C86.0049 47.5763 85.9531 47.4453 85.8608 47.2511L85.1457 45.6899ZM84.7817 44.8697L82.8306 40.5905L80.8924 44.8697H84.7817Z" fill="white"/>
<path d="M88.9489 47.4194V41.7359C88.9489 41.566 88.923 41.4366 88.8696 41.359C88.8178 41.2926 88.7143 41.2279 88.5444 41.189V41.0208H92.1344C93.097 41.0208 93.8137 41.1373 94.2813 41.359C94.867 41.6437 95.3216 42.1128 95.6597 42.7632C95.9461 43.3359 96.0884 43.9329 96.0884 44.5704C96.0884 45.3259 95.8943 46.0151 95.5173 46.6396C95.1921 47.1848 94.7747 47.5763 94.2683 47.7964C93.7603 48.018 93.0452 48.1345 92.1344 48.1345H88.5444V47.9662C88.7143 47.9274 88.8178 47.8611 88.8696 47.7834C88.923 47.7187 88.9489 47.5893 88.9489 47.4194ZM89.8581 47.4453H92.0956C92.9288 47.4453 93.5532 47.3288 93.9432 47.1072C94.3719 46.8467 94.6971 46.4568 94.9058 45.9245C95.0611 45.5071 95.1404 45.0655 95.1404 44.5704C95.1404 43.7129 94.9187 43.0107 94.477 42.4899C94.2295 42.2035 93.9303 42.0093 93.5662 41.8912C93.2022 41.7618 92.7071 41.71 92.0956 41.71H89.8581V47.4453Z" fill="white"/>
<path d="M100.915 47.1201L103.178 41.9041C103.243 41.7618 103.269 41.6437 103.269 41.5402C103.269 41.346 103.153 41.2279 102.905 41.189V41.0208H104.673V41.189C104.492 41.2408 104.348 41.3185 104.27 41.4236C104.193 41.5143 104.063 41.7618 103.906 42.1387L101.734 47.0813C101.63 47.3159 101.578 47.497 101.578 47.6152C101.578 47.7964 101.695 47.9145 101.942 47.9662V48.1345H99.7437V47.9662C99.9783 47.9145 100.095 47.7964 100.095 47.6152C100.095 47.497 100.043 47.3159 99.9394 47.0813L97.7149 42.1387C97.5337 41.7489 97.4027 41.5143 97.325 41.4107C97.2474 41.3185 97.1163 41.2408 96.9351 41.189V41.0208H98.8992V41.189C98.6516 41.2279 98.5222 41.346 98.5222 41.5272C98.5222 41.6307 98.561 41.7618 98.6128 41.9041L100.915 47.1201Z" fill="white"/>
<path d="M109.677 40.8639C110.952 40.8639 111.966 41.189 112.746 41.8524C113.566 42.5545 113.982 43.4783 113.982 44.6238C113.982 45.3388 113.775 46.0022 113.371 46.6008C112.604 47.7316 111.381 48.2914 109.69 48.2914C108.428 48.2914 107.414 47.9533 106.634 47.3029C105.814 46.6008 105.398 45.6899 105.398 44.5704C105.398 43.8294 105.607 43.1532 106.009 42.5545C106.425 41.9171 107.037 41.4625 107.804 41.1761C108.337 40.9804 108.962 40.8769 109.677 40.8639ZM109.677 41.6049C108.637 41.6049 107.804 41.9171 107.179 42.5545C106.621 43.1014 106.348 43.7776 106.348 44.5704C106.348 45.3776 106.621 46.041 107.179 46.6008C107.804 47.2382 108.65 47.5488 109.69 47.5488C110.73 47.5488 111.576 47.2382 112.201 46.6008C112.759 46.041 113.032 45.3906 113.032 44.6092C113.032 43.7776 112.759 43.0884 112.201 42.5545C111.563 41.93 110.73 41.6178 109.677 41.6049Z" fill="white"/>
<path d="M123.165 41.5402L122.372 42.9056L122.228 42.815C122.256 42.6985 122.269 42.6192 122.269 42.5545C122.269 42.464 122.189 42.3733 122.021 42.2553C121.332 41.8265 120.537 41.6049 119.615 41.6049C118.717 41.6049 117.962 41.8524 117.352 42.3474C116.676 42.9056 116.336 43.6207 116.336 44.5316C116.336 45.4942 116.714 46.2756 117.468 46.8596C118.054 47.3159 118.756 47.5488 119.575 47.5488C120.499 47.5488 121.306 47.277 121.982 46.7561C122.256 46.5344 122.385 46.3791 122.385 46.2885C122.385 46.2093 122.346 46.1057 122.281 45.9634L122.424 45.8711L123.412 47.1331L123.283 47.2511C123.126 47.1201 123.022 47.0554 122.958 47.0554C122.932 47.0554 122.878 47.0813 122.814 47.1331C122.294 47.5488 121.761 47.8352 121.24 48.018C120.72 48.1992 120.135 48.2914 119.484 48.2914C118.353 48.2914 117.43 47.9792 116.689 47.3806C116.323 47.0683 116.025 46.7043 115.804 46.2885C115.53 45.7547 115.388 45.1819 115.388 44.5575C115.388 43.4007 115.842 42.464 116.753 41.7489C117.507 41.1632 118.47 40.8639 119.615 40.8639C120.63 40.8639 121.605 41.1114 122.527 41.6049C122.607 41.6566 122.671 41.6712 122.71 41.6712C122.801 41.6712 122.906 41.6048 123.01 41.4625L123.165 41.5402Z" fill="white"/>
<path d="M129.885 46.1316H126.166L125.619 47.3288C125.554 47.4711 125.515 47.5893 125.515 47.654C125.515 47.8093 125.632 47.9015 125.854 47.9662V48.1345H124.097V47.9662C124.267 47.9403 124.396 47.874 124.501 47.7705C124.592 47.667 124.708 47.4582 124.839 47.1719L127.193 42.0482C127.323 41.7618 127.389 41.566 127.389 41.4625C127.389 41.3185 127.284 41.2279 127.077 41.189V41.0208H129.144V41.189C128.923 41.2279 128.819 41.3314 128.819 41.4625C128.819 41.5402 128.91 41.7747 129.08 42.1387L131.343 47.0683C131.485 47.3936 131.615 47.6152 131.733 47.7446C131.836 47.8611 131.98 47.9403 132.149 47.9662V48.1345H130.301V47.9662C130.497 47.9274 130.587 47.8482 130.587 47.7446C130.587 47.6928 130.536 47.5634 130.445 47.3288L129.885 46.1316ZM129.599 45.4424L128.038 41.9559L126.465 45.4424H129.599Z" fill="white"/>
<path d="M140.586 41.5402L139.794 42.9056L139.65 42.815C139.676 42.6985 139.688 42.6192 139.688 42.5545C139.688 42.464 139.611 42.3733 139.443 42.2553C138.753 41.8265 137.959 41.6049 137.035 41.6049C136.139 41.6049 135.383 41.8524 134.772 42.3474C134.096 42.9056 133.757 43.6207 133.757 44.5316C133.757 45.4942 134.134 46.2756 134.89 46.8596C135.476 47.3159 136.178 47.5488 136.996 47.5488C137.92 47.5488 138.726 47.277 139.404 46.7561C139.676 46.5344 139.807 46.3791 139.807 46.2885C139.807 46.2093 139.768 46.1057 139.701 45.9634L139.845 45.8711L140.834 47.1331L140.704 47.2511C140.548 47.1201 140.444 47.0554 140.379 47.0554C140.352 47.0554 140.3 47.0813 140.235 47.1331C139.714 47.5488 139.182 47.8352 138.661 48.018C138.142 48.1992 137.556 48.2914 136.906 48.2914C135.773 48.2914 134.851 47.9792 134.109 47.3806C133.744 47.0683 133.445 46.7043 133.225 46.2885C132.952 45.7547 132.808 45.1819 132.808 44.5575C132.808 43.4007 133.264 42.464 134.175 41.7489C134.929 41.1632 135.891 40.8639 137.035 40.8639C138.05 40.8639 139.025 41.1114 139.949 41.6049C140.027 41.6566 140.093 41.6712 140.132 41.6712C140.222 41.6712 140.326 41.6048 140.431 41.4625L140.586 41.5402Z" fill="white"/>
<path d="M142.663 47.4194V41.7359C142.663 41.5531 142.637 41.4366 142.584 41.359C142.532 41.2926 142.416 41.2279 142.259 41.189V41.0208H143.977V41.189C143.82 41.2279 143.716 41.2926 143.652 41.359C143.6 41.4366 143.574 41.5531 143.574 41.7359V47.4194C143.574 47.5893 143.6 47.7187 143.652 47.7834C143.716 47.8611 143.82 47.9274 143.977 47.9662V48.1345H142.259V47.9662C142.416 47.9274 142.532 47.8611 142.584 47.7834C142.637 47.7187 142.663 47.5893 142.663 47.4194Z" fill="white"/>
<path d="M150.793 46.1316H147.072L146.527 47.3288C146.462 47.4711 146.422 47.5893 146.422 47.654C146.422 47.8093 146.54 47.9015 146.76 47.9662V48.1345H145.004V47.9662C145.174 47.9403 145.304 47.874 145.407 47.7705C145.499 47.667 145.616 47.4582 145.745 47.1719L148.101 42.0482C148.23 41.7618 148.295 41.566 148.295 41.4625C148.295 41.3185 148.192 41.2279 147.983 41.189V41.0208H150.052V41.189C149.83 41.2279 149.727 41.3314 149.727 41.4625C149.727 41.5402 149.817 41.7747 149.986 42.1387L152.249 47.0683C152.393 47.3936 152.523 47.6152 152.639 47.7446C152.744 47.8611 152.887 47.9403 153.056 47.9662V48.1345H151.209V47.9662C151.405 47.9274 151.495 47.8482 151.495 47.7446C151.495 47.6928 151.443 47.5634 151.353 47.3288L150.793 46.1316ZM150.507 45.4424L148.946 41.9559L147.371 45.4424H150.507Z" fill="white"/>
<path d="M158.892 44.0769V47.3159H164.433C164.615 47.3159 164.746 47.29 164.81 47.2382C164.888 47.1719 164.94 47.0683 164.98 46.913H165.187V48.539H164.98C164.94 48.3821 164.875 48.2785 164.81 48.2137C164.733 48.1604 164.602 48.1345 164.433 48.1345H157.488V47.9274C157.656 47.8886 157.76 47.8223 157.813 47.7575C157.865 47.6799 157.891 47.5634 157.891 47.3806V40.2135C157.891 40.0307 157.865 39.9142 157.813 39.8365C157.76 39.7718 157.643 39.7071 157.488 39.6667V39.4596H164.356C164.537 39.4596 164.655 39.4337 164.733 39.3819C164.797 39.3285 164.862 39.2121 164.901 39.0568H165.11V40.6811H164.901C164.862 40.5257 164.81 40.4222 164.733 40.3559C164.655 40.3041 164.537 40.2782 164.356 40.2782H158.892V43.2567H162.469C162.651 43.2567 162.782 43.2308 162.846 43.179C162.924 43.1143 162.976 43.0108 163.016 42.8538H163.223V44.4798H163.016C162.976 44.3245 162.924 44.2063 162.846 44.1546C162.782 44.1028 162.651 44.0769 162.469 44.0769H158.892Z" fill="white"/>
<path d="M173.637 41.3848L172.935 42.7762L172.793 42.6985C172.805 42.5674 172.818 42.4899 172.818 42.4381C172.818 42.3474 172.674 42.2164 172.401 42.074C171.817 41.7618 171.115 41.6049 170.269 41.6049C169.592 41.6049 169.02 41.7359 168.552 41.9818C168.083 42.2294 167.85 42.5804 167.85 43.0366C167.85 43.2437 167.915 43.4266 168.031 43.5819C168.148 43.7517 168.305 43.8683 168.5 43.9329C168.707 43.9992 168.916 44.051 169.151 44.064C169.384 44.0899 169.892 44.1158 170.659 44.1417C171.296 44.1675 171.778 44.2063 172.103 44.2581C172.441 44.3245 172.713 44.415 172.948 44.5445C173.195 44.6885 173.389 44.8955 173.533 45.156C173.689 45.4294 173.755 45.7158 173.755 46.0281C173.755 46.6785 173.482 47.2107 172.948 47.6022C172.31 48.0569 171.453 48.2914 170.385 48.2914C169.866 48.2914 169.306 48.2137 168.733 48.0439C168.148 47.8886 167.615 47.6669 167.12 47.3806C167.056 47.3418 167.004 47.3159 166.965 47.3159C166.9 47.3159 166.808 47.3936 166.679 47.5359L166.536 47.4453L167.342 46.0927L167.497 46.1834C167.484 46.2351 167.471 46.2626 167.471 46.2885C167.445 46.3532 167.433 46.405 167.433 46.4439C167.433 46.5749 167.654 46.7431 168.083 46.9648C168.811 47.3547 169.566 47.5488 170.346 47.5488C171.061 47.5488 171.66 47.4194 172.142 47.1848C172.362 47.0554 172.545 46.8985 172.674 46.7043C172.818 46.4956 172.883 46.2885 172.883 46.0668C172.883 45.8582 172.831 45.677 172.713 45.5201C172.597 45.3518 172.454 45.2467 172.259 45.169C172.089 45.1172 171.895 45.0784 171.686 45.0525C171.466 45.0266 171.061 45.0007 170.477 44.9748C169.774 44.9489 169.267 44.9085 168.968 44.8697C168.669 44.8309 168.382 44.7661 168.122 44.6626C167.784 44.5445 167.51 44.3504 167.303 44.064C167.094 43.7906 166.991 43.4525 166.991 43.0625C166.991 42.3863 167.303 41.8524 167.915 41.4625C168.552 41.0597 169.345 40.8639 170.32 40.8639C171.218 40.8639 172.103 41.0597 173 41.4625C173.144 41.5143 173.221 41.5402 173.234 41.5402C173.312 41.5402 173.389 41.4625 173.482 41.3056L173.637 41.3848Z" fill="white"/>
<path d="M176.358 44.9344V47.4711C176.358 47.6022 176.384 47.6928 176.449 47.7575C176.501 47.8223 176.606 47.8886 176.748 47.9274V48.1345H175.045V47.9274C175.2 47.8886 175.305 47.8223 175.357 47.7575C175.422 47.6928 175.448 47.6022 175.448 47.4711V41.6566C175.448 41.5272 175.422 41.4366 175.357 41.3719C175.292 41.3185 175.187 41.2667 175.045 41.2279V41.0208H178.986C179.505 41.0208 179.91 41.0467 180.169 41.0856C180.442 41.1373 180.689 41.2279 180.898 41.359C181.157 41.5013 181.366 41.723 181.51 42.0223C181.652 42.307 181.73 42.6322 181.73 42.9849C181.73 43.3359 181.652 43.6482 181.51 43.9329C181.366 44.2193 181.157 44.4409 180.898 44.5963C180.677 44.7273 180.429 44.8179 180.169 44.8697C179.897 44.9085 179.505 44.9344 178.986 44.9344H176.358ZM176.358 44.2452H178.855C179.311 44.2452 179.649 44.2322 179.856 44.1934C180.078 44.1546 180.261 44.0899 180.416 43.9863C180.715 43.7906 180.859 43.4524 180.859 42.9703C180.859 42.5028 180.715 42.1646 180.416 41.9689C180.261 41.8653 180.078 41.8007 179.871 41.7618C179.649 41.723 179.324 41.71 178.855 41.71H176.358V44.2452Z" fill="white"/>
<path d="M184.268 44.805V47.4453H188.653C188.834 47.4453 188.952 47.4194 189.03 47.3676C189.107 47.3159 189.159 47.1977 189.2 47.0424H189.381V48.539H189.2C189.159 48.382 189.107 48.2785 189.03 48.2137C188.965 48.1604 188.834 48.1344 188.666 48.1344H182.955V47.9662C183.125 47.9274 183.228 47.861 183.28 47.7834C183.333 47.7187 183.359 47.5893 183.359 47.4194V41.7359C183.359 41.5531 183.333 41.4366 183.28 41.3589C183.228 41.2926 183.112 41.2279 182.955 41.189V41.0208H188.627C188.808 41.0208 188.926 40.9933 189.004 40.9415C189.069 40.8768 189.133 40.7733 189.172 40.6164H189.342V42.1128H189.172C189.133 41.9559 189.069 41.8394 189.004 41.7877C188.926 41.7359 188.808 41.71 188.627 41.71H184.268V44.1158H187.053C187.236 44.1158 187.352 44.0899 187.43 44.0381C187.494 43.9733 187.561 43.8682 187.6 43.7129H187.768V45.2078H187.6C187.561 45.0525 187.494 44.9344 187.43 44.8826C187.352 44.8308 187.223 44.805 187.053 44.805H184.268Z" fill="white"/>
<path d="M198.541 41.5402L197.747 42.9056L197.604 42.815C197.63 42.6985 197.643 42.6192 197.643 42.5545C197.643 42.464 197.565 42.3733 197.395 42.2553C196.706 41.8265 195.914 41.6049 194.99 41.6049C194.092 41.6049 193.338 41.8524 192.726 42.3474C192.05 42.9056 191.712 43.6207 191.712 44.5316C191.712 45.4942 192.089 46.2756 192.843 46.8596C193.429 47.3159 194.131 47.5488 194.951 47.5488C195.873 47.5488 196.68 47.277 197.357 46.7561C197.63 46.5344 197.76 46.3791 197.76 46.2885C197.76 46.2093 197.721 46.1057 197.656 45.9634L197.798 45.8711L198.787 47.1331L198.657 47.2511C198.5 47.1201 198.397 47.0554 198.332 47.0554C198.306 47.0554 198.255 47.0813 198.188 47.1331C197.669 47.5488 197.135 47.8352 196.616 48.018C196.095 48.1992 195.509 48.2914 194.859 48.2914C193.728 48.2914 192.804 47.9792 192.063 47.3806C191.699 47.0683 191.4 46.7043 191.178 46.2885C190.905 45.7547 190.762 45.1819 190.762 44.5575C190.762 43.4007 191.217 42.464 192.128 41.7489C192.882 41.1632 193.844 40.8639 194.99 40.8639C196.004 40.8639 196.98 41.1114 197.903 41.6049C197.981 41.6566 198.046 41.6712 198.085 41.6712C198.175 41.6712 198.28 41.6048 198.384 41.4625L198.541 41.5402Z" fill="white"/>
<path d="M200.616 47.4194V41.7359C200.616 41.5531 200.59 41.4366 200.539 41.359C200.487 41.2926 200.369 41.2279 200.213 41.189V41.0208H201.93V41.189C201.775 41.2279 201.669 41.2926 201.605 41.359C201.553 41.4366 201.527 41.5531 201.527 41.7359V47.4194C201.527 47.5893 201.553 47.7187 201.605 47.7834C201.669 47.8611 201.775 47.9274 201.93 47.9662V48.1345H200.213V47.9662C200.369 47.9274 200.487 47.8611 200.539 47.7834C200.59 47.7187 200.616 47.5893 200.616 47.4194Z" fill="white"/>
<path d="M208.746 46.1316H205.027L204.48 47.3288C204.415 47.4711 204.376 47.5893 204.376 47.654C204.376 47.8093 204.493 47.9015 204.714 47.9662V48.1345H202.958V47.9662C203.127 47.9403 203.257 47.874 203.36 47.7705C203.453 47.667 203.569 47.4582 203.698 47.1719L206.054 42.0482C206.184 41.7618 206.248 41.566 206.248 41.4625C206.248 41.3185 206.145 41.2279 205.936 41.189V41.0208H208.005V41.189C207.784 41.2279 207.68 41.3314 207.68 41.4625C207.68 41.5402 207.771 41.7747 207.939 42.1387L210.202 47.0683C210.346 47.3936 210.476 47.6152 210.594 47.7446C210.697 47.8611 210.84 47.9403 211.01 47.9662V48.1345H209.162V47.9662C209.358 47.9274 209.448 47.8482 209.448 47.7446C209.448 47.6928 209.397 47.5634 209.306 47.3288L208.746 46.1316ZM208.46 45.4424L206.899 41.9559L205.324 45.4424H208.46Z" fill="white"/>
<path d="M213.165 47.4453H217.509C217.679 47.4453 217.808 47.4194 217.886 47.3677C217.95 47.3159 218.017 47.1978 218.055 47.0424H218.224V48.539H218.055C218.017 48.382 217.95 48.2785 217.886 48.2137C217.808 48.1604 217.679 48.1345 217.509 48.1345H211.851V47.9662C212.006 47.9274 212.124 47.8611 212.176 47.7834C212.228 47.7187 212.254 47.5893 212.254 47.4194V41.7359C212.254 41.5531 212.228 41.4366 212.176 41.359C212.124 41.2926 212.006 41.2279 211.851 41.189V41.0208H213.567V41.189C213.411 41.2279 213.307 41.2926 213.242 41.359C213.191 41.4366 213.165 41.5531 213.165 41.7359V47.4453Z" fill="white"/>
<path d="M219.636 47.4194V41.7359C219.636 41.5531 219.608 41.4366 219.556 41.359C219.505 41.2926 219.388 41.2279 219.231 41.189V41.0208H220.949V41.189C220.793 41.2279 220.689 41.2926 220.624 41.359C220.571 41.4366 220.545 41.5531 220.545 41.7359V47.4194C220.545 47.5893 220.571 47.7187 220.624 47.7834C220.689 47.8611 220.793 47.9274 220.949 47.9662V48.1345H219.231V47.9662C219.388 47.9274 219.505 47.8611 219.556 47.7834C219.608 47.7187 219.636 47.5893 219.636 47.4194Z" fill="white"/>
<path d="M228.597 41.0208V41.1243L223.771 47.4453H227.895C228.063 47.4453 228.194 47.4194 228.272 47.3676C228.337 47.3159 228.403 47.1977 228.442 47.0424H228.61V48.539H228.442C228.403 48.382 228.337 48.2785 228.272 48.2137C228.194 48.1604 228.063 48.1344 227.895 48.1344H222.238V47.9921L227.128 41.71H223.017C222.849 41.71 222.718 41.7359 222.64 41.7877C222.576 41.8394 222.509 41.9559 222.471 42.1128H222.302V40.6164H222.471C222.509 40.7733 222.576 40.8768 222.64 40.9415C222.718 40.9933 222.835 41.0208 223.017 41.0208H228.597Z" fill="white"/>
<path d="M234.928 46.1316H231.208L230.661 47.3288C230.597 47.4711 230.558 47.5893 230.558 47.654C230.558 47.8093 230.674 47.9015 230.896 47.9662V48.1345H229.139V47.9662C229.309 47.9403 229.438 47.874 229.542 47.7705C229.634 47.667 229.75 47.4582 229.881 47.1719L232.235 42.0482C232.365 41.7618 232.43 41.566 232.43 41.4625C232.43 41.3185 232.326 41.2279 232.117 41.189V41.0208H234.187V41.189C233.965 41.2279 233.861 41.3314 233.861 41.4625C233.861 41.5402 233.952 41.7747 234.12 42.1387L236.384 47.0683C236.528 47.3936 236.657 47.6152 236.775 47.7446C236.879 47.8611 237.021 47.9403 237.191 47.9662V48.1345H235.343V47.9662C235.539 47.9274 235.63 47.8482 235.63 47.7446C235.63 47.6928 235.578 47.5634 235.487 47.3288L234.928 46.1316ZM234.641 45.4424L233.08 41.9559L231.506 45.4424H234.641Z" fill="white"/>
<path d="M238.435 47.4194V41.7359C238.435 41.566 238.409 41.4366 238.358 41.359C238.306 41.2926 238.201 41.2279 238.032 41.189V41.0208H241.622C242.585 41.0208 243.3 41.1373 243.768 41.359C244.353 41.6437 244.808 42.1128 245.146 42.7632C245.432 43.3359 245.576 43.9329 245.576 44.5704C245.576 45.3259 245.381 46.0151 245.004 46.6396C244.678 47.1848 244.263 47.5763 243.755 47.7964C243.248 48.018 242.532 48.1345 241.622 48.1345H238.032V47.9662C238.201 47.9274 238.306 47.8611 238.358 47.7834C238.409 47.7187 238.435 47.5893 238.435 47.4194ZM239.346 47.4453H241.584C242.415 47.4453 243.04 47.3288 243.429 47.1072C243.86 46.8467 244.185 46.4568 244.392 45.9245C244.549 45.5071 244.627 45.0655 244.627 44.5704C244.627 43.7129 244.405 43.0107 243.963 42.4899C243.716 42.2035 243.417 42.0093 243.053 41.8912C242.688 41.7618 242.193 41.71 241.584 41.71H239.346V47.4453Z" fill="white"/>
<path d="M252.21 46.1316H248.489L247.943 47.3288C247.879 47.4711 247.838 47.5893 247.838 47.654C247.838 47.8093 247.956 47.9015 248.178 47.9662V48.1345H246.421V47.9662C246.591 47.9403 246.72 47.874 246.824 47.7705C246.916 47.667 247.033 47.4582 247.162 47.1719L249.518 42.0482C249.647 41.7618 249.712 41.566 249.712 41.4625C249.712 41.3185 249.608 41.2279 249.399 41.189V41.0208H251.469V41.189C251.247 41.2279 251.144 41.3314 251.144 41.4625C251.144 41.5402 251.234 41.7747 251.402 42.1387L253.666 47.0683C253.81 47.3936 253.939 47.6152 254.056 47.7446C254.161 47.8611 254.303 47.9403 254.473 47.9662V48.1345H252.625V47.9662C252.821 47.9274 252.912 47.8482 252.912 47.7446C252.912 47.6928 252.86 47.5634 252.77 47.3288L252.21 46.1316ZM251.923 45.4424L250.362 41.9559L248.788 45.4424H251.923Z" fill="white"/>
<path fill-rule="evenodd" clip-rule="evenodd" d="M35.5163 14.4404V60L29.8076 56.2405V15.5166L35.5163 14.4404ZM20.9285 17.1905V50.3921L15.2209 46.6315V18.2666L20.9285 17.1905ZM59.141 44.6469L44.3953 47.7366V49.6266H59.141V44.6469ZM50.1028 11.6915V43.4277L44.3953 44.6232V12.7665L50.1028 11.6915ZM58.6648 0L6.0247 13.16L9.03709 16.3304L58.6648 6.97615V0ZM3.96384 10.3057L0 6.0247L42.3333 1.5847L3.96384 10.3057Z" fill="url(#paint0_linear_316_1304)"/>
<defs>
<linearGradient id="paint0_linear_316_1304" x1="57.1892" y1="-0.739445" x2="57.174" y2="12.8557" gradientUnits="userSpaceOnUse">
<stop stop-color="#3383AE"/>
<stop offset="1" stop-color="#449CB2"/>
</linearGradient>
</defs>
</svg>
