<svg width="100" height="100" viewBox="0 0 100 100" fill="none" xmlns="http://www.w3.org/2000/svg">
<circle cx="50" cy="50" r="50" fill="white"/>
<g clip-path="url(#clip0_125_15)">
<path d="M30 50C30 44.6957 32.1071 39.6086 35.8579 35.8579C39.6086 32.1071 44.6957 30 50 30C55.3043 30 60.3914 32.1071 64.1421 35.8579C67.8929 39.6086 70 44.6957 70 50C70 55.3043 67.8929 60.3914 64.1421 64.1421C60.3914 67.8929 55.3043 70 50 70C44.6957 70 39.6086 67.8929 35.8579 64.1421C32.1071 60.3914 30 55.3043 30 50ZM48.75 32.6925C47.075 33.2025 45.4125 34.7425 44.0325 37.33C43.5778 38.1902 43.1868 39.0826 42.8625 40H48.75V32.6925ZM40.225 40C40.6417 38.672 41.1772 37.3843 41.825 36.1525C42.2573 35.3351 42.7565 34.555 43.3175 33.82C40.22 35.1046 37.555 37.2491 35.6375 40H40.225ZM38.77 48.75C38.845 46.5575 39.115 44.455 39.55 42.5H34.185C33.2528 44.4626 32.6965 46.5825 32.545 48.75H38.77ZM42.1175 42.5C41.6258 44.5495 41.3427 46.6435 41.2725 48.75H48.75V42.5H42.1175ZM51.25 42.5V48.75H58.725C58.6557 46.6436 58.3735 44.5496 57.8825 42.5H51.25ZM41.275 51.25C41.3444 53.3564 41.6266 55.4504 42.1175 57.5H48.75V51.25H41.275ZM51.25 51.25V57.5H57.8825C58.35 55.5875 58.6475 53.48 58.7275 51.25H51.25ZM42.8625 60C43.2075 60.965 43.6 61.86 44.0325 62.67C45.4125 65.2575 47.0775 66.795 48.75 67.3075V60H42.8625ZM43.3175 66.18C42.7564 65.4451 42.2572 64.6649 41.825 63.8475C41.1772 62.6157 40.6417 61.328 40.225 60H35.6375C37.5549 62.751 40.2199 64.8956 43.3175 66.18ZM39.55 57.5C39.0979 55.4452 38.8368 53.3529 38.77 51.25H32.545C32.7 53.475 33.2725 55.5825 34.185 57.5H39.55ZM56.6825 66.18C59.7801 64.8956 62.4451 62.751 64.3625 60H59.775C59.3583 61.3279 58.8228 62.6156 58.175 63.8475C57.7429 64.6649 57.2436 65.4451 56.6825 66.18ZM51.25 60V67.3075C52.925 66.7975 54.5875 65.2575 55.9675 62.67C56.4 61.86 56.7925 60.965 57.1375 60H51.25ZM60.45 57.5H65.815C66.7275 55.5825 67.3 53.475 67.455 51.25H61.23C61.1632 53.3529 60.9021 55.4452 60.45 57.5ZM67.455 48.75C67.3034 46.5825 66.7472 44.4626 65.815 42.5H60.45C60.885 44.455 61.155 46.5575 61.23 48.75H67.455ZM58.175 36.1525C58.7925 37.3125 59.33 38.6025 59.775 40H64.3625C62.4451 37.249 59.7801 35.1044 56.6825 33.82C57.2275 34.53 57.7275 35.315 58.175 36.1525ZM57.1375 40C56.8132 39.0826 56.4222 38.1902 55.9675 37.33C54.5875 34.7425 52.925 33.205 51.25 32.6925V40H57.1375Z" fill="#101929"/>
</g>
<defs>
<clipPath id="clip0_125_15">
<rect width="40" height="40" fill="white" transform="translate(30 30)"/>
</clipPath>
</defs>
</svg>
